<svg width="64" height="64" viewBox="0 0 64 64" fill="none" xmlns="http://www.w3.org/2000/svg">
<path d="M27.5726 17.4063C28.1262 17.4063 28.5751 16.9867 28.5751 16.4688V15.4334C28.5751 14.9155 28.1262 14.4958 27.5726 14.4958C27.0189 14.4958 26.5702 14.9155 26.5702 15.4334V16.4688C26.5702 16.9867 27.0189 17.4063 27.5726 17.4063Z" fill="#FFBB01"/>
<path d="M36.4301 17.4063C36.9837 17.4063 37.4325 16.9867 37.4325 16.4688V15.4334C37.4325 14.9155 36.9837 14.4958 36.4301 14.4958C35.8763 14.4958 35.4276 14.9155 35.4276 15.4334V16.4688C35.4276 16.9867 35.8763 17.4063 36.4301 17.4063Z" fill="#FFBB01"/>
<path d="M29.787 24.5249H34.2156C34.7692 24.5249 35.2181 24.1053 35.2181 23.5875C35.2181 23.0696 34.7692 22.65 34.2156 22.65H29.787C29.2332 22.65 28.7845 23.0696 28.7845 23.5875C28.7845 24.1053 29.2334 24.5249 29.787 24.5249Z" fill="#FFBB01"/>
<path d="M63.6232 57.2606C63.6214 57.2566 63.6198 57.2528 63.618 57.2487L61.4393 52.3486C61.438 52.3455 61.4367 52.3424 61.4352 52.3394L56.9734 42.3045C55.9636 39.9482 54.1452 38.1575 51.835 37.2284C50.8429 35.9997 49.2688 35.204 47.4993 35.204H45.1524C44.5986 35.204 44.15 35.6236 44.15 36.1415C44.15 36.6594 44.5986 37.079 45.1524 37.079H47.4993C49.3884 37.079 50.9254 38.5164 50.9254 40.2831V57.9832H13.0734V40.2832C13.0734 38.5165 14.6104 37.0791 16.4995 37.0791H41.1428C41.6965 37.0791 42.1452 36.6595 42.1452 36.1416C42.1452 35.6237 41.6965 35.2041 41.1428 35.2041H39.6433V30.3822C42.1046 28.4959 43.7573 25.7195 44.0341 22.5837H45.2879C47.0617 22.5837 48.5045 21.2343 48.5045 19.5755V15.4334C48.5045 13.7745 47.0616 12.4251 45.2879 12.4251H44.076V11.2966C44.076 11.295 44.0763 11.2934 44.0763 11.2917C44.0763 11.2901 44.076 11.2885 44.076 11.2869V6.11462C44.076 2.743 41.1429 0 37.5379 0H26.4667C22.8615 0 19.9285 2.743 19.9285 6.11462V11.2885C19.9285 11.2896 19.9284 11.2906 19.9284 11.2917C19.9284 11.2929 19.9285 11.2939 19.9285 11.295V12.4253H18.7166C16.9428 12.4253 15.5 13.7749 15.5 15.4336V19.5751C15.5 21.234 16.943 22.5835 18.7166 22.5835H19.9705C20.2471 25.7174 21.8978 28.4923 24.3567 30.3786V35.204H16.4994C14.7295 35.204 13.1551 36.0001 12.1629 37.2293C9.85359 38.1586 8.03583 39.9489 7.02658 42.3047L2.56506 52.339C2.56359 52.3424 2.56212 52.3457 2.56051 52.3491L0.382015 57.2487C0.380144 57.2526 0.37854 57.2567 0.376803 57.2606C-0.25861 58.7464 -0.0828488 60.4386 0.847013 61.7874C1.76538 63.1196 3.2526 63.9243 4.92747 63.9948C4.95501 63.9959 5.01154 63.9982 10.9528 63.9997C10.9564 63.9997 10.96 64 10.9636 64H12.0704H12.0707H15.6014C16.1552 64 16.6039 63.5804 16.6039 63.0625C16.6039 62.5446 16.1552 62.125 15.6014 62.125H12.071C11.7677 62.125 11.3856 62.1249 10.958 62.1247C10.2924 62.1219 9.75174 61.6149 9.75174 60.9917V59.9562C9.75174 59.9022 9.79879 59.8584 9.8564 59.8584H12.0707H51.9275H54.1419C54.1996 59.8584 54.2465 59.9024 54.2465 59.9562V60.9917C54.2465 61.6149 53.7059 62.122 53.0401 62.1247C52.6131 62.1249 52.2316 62.125 51.9286 62.125H19.6113C19.0576 62.125 18.6089 62.5446 18.6089 63.0625C18.6089 63.5804 19.0576 64 19.6113 64H51.9293H51.9295H53.035C53.0386 64 53.0422 63.9997 53.0459 63.9997C58.9886 63.9982 59.0451 63.9959 59.0731 63.9948C60.7475 63.9243 62.2347 63.1196 63.1531 61.7874C64.0828 60.4386 64.2586 58.7464 63.6232 57.2606ZM45.2879 14.3C45.9561 14.3 46.4997 14.8084 46.4997 15.4333V19.5754C46.4997 20.2002 45.9561 20.7086 45.2879 20.7086H44.076V14.3H45.2879ZM26.4667 1.875H37.5379C40.0375 1.875 42.0712 3.77688 42.0712 6.11462V10.3542H40.8583C40.1902 10.3542 39.6466 9.84587 39.6466 9.22087V8.0875H39.7515C40.3053 8.0875 40.754 7.66788 40.754 7.15C40.754 6.63212 40.3053 6.2125 39.7515 6.2125H24.2514C23.6977 6.2125 23.249 6.63212 23.249 7.15C23.249 7.66788 23.6977 8.0875 24.2514 8.0875H24.3559V9.22075C24.3559 9.84575 23.8123 10.3541 23.1441 10.3541H21.9334V6.1145C21.9334 3.77688 23.9669 1.875 26.4667 1.875ZM17.5049 19.5753V15.4338C17.5049 14.8088 18.0485 14.3004 18.7166 14.3004H19.9285L19.9286 20.7087H18.7167C18.0485 20.7086 17.5049 20.2003 17.5049 19.5753ZM21.9335 21.6462L21.9334 12.2292H23.1441C24.9177 12.2292 26.3608 10.8796 26.3608 9.22087V8.0875H37.6415V9.22075C37.6415 10.8796 39.0844 12.2291 40.8581 12.2291H42.0709V21.6461C42.0709 26.8384 37.554 31.0626 32.0021 31.0626C26.4504 31.0628 21.9335 26.8385 21.9335 21.6462ZM26.3616 31.6271C28.0462 32.4631 29.966 32.9378 32.0023 32.9378C34.0367 32.9378 35.9548 32.464 37.6382 31.6294V35.2041H26.3616V31.6271ZM8.88029 43.0189C8.88216 43.015 8.88376 43.0109 8.8855 43.007C9.38993 41.8276 10.1407 40.8284 11.0743 40.0641C11.071 40.1369 11.0684 40.2098 11.0684 40.2831V51.7707H4.98896L8.88029 43.0189ZM7.747 59.9561V60.9916C7.747 61.392 7.83174 61.774 7.98411 62.1236C6.48018 62.1229 5.16619 62.122 5.00205 62.1209C3.99079 62.0737 3.09114 61.5825 2.53191 60.7713C1.95451 59.9336 1.84397 58.8839 2.23599 57.9622L4.15519 53.6457H11.0684V57.9831H9.85653C8.6933 57.9832 7.747 58.8682 7.747 59.9561ZM55.1144 43.0071C55.1161 43.0111 55.1177 43.015 55.1196 43.019L59.011 51.771H52.9302V40.2834C52.9302 40.2096 52.9276 40.1364 52.9242 40.0633C53.8585 40.8275 54.6097 41.8271 55.1144 43.0071ZM61.4681 60.7714C60.9087 61.5826 60.0089 62.074 58.9979 62.121C58.8341 62.1221 57.5193 62.123 56.0145 62.1237C56.167 61.7741 56.2518 61.3921 56.2518 60.9917V59.9562C56.2518 58.8684 55.3055 57.9834 54.1423 57.9834H52.9304V53.646H59.8449L61.7643 57.9626C62.1559 58.8841 62.0455 59.9338 61.4681 60.7714Z" fill="#FFBB01"/>
<path d="M28.7827 48.5667C28.7827 50.2256 30.2257 51.575 31.9993 51.575C33.773 51.575 35.2159 50.2254 35.2159 48.5667C35.2159 46.9079 33.773 45.5583 31.9993 45.5583C30.2257 45.5583 28.7827 46.9079 28.7827 48.5667ZM33.2111 48.5667C33.2111 49.1915 32.6675 49.6999 31.9993 49.6999C31.3312 49.6999 30.7876 49.1915 30.7876 48.5667C30.7876 47.9418 31.3312 47.4334 31.9993 47.4334C32.6675 47.4334 33.2111 47.9418 33.2111 48.5667Z" fill="#FFBB01"/>
</svg>
