<svg width="64" height="64" viewBox="0 0 64 64" fill="none" xmlns="http://www.w3.org/2000/svg">
<g clip-path="url(#clip0)">
<path d="M31.3702 14.0273H32.996C34.1895 14.0273 35.1644 13.0741 35.1995 11.889C36.3846 11.8539 37.338 10.8789 37.338 9.68542V8.05958C37.338 6.86608 36.3846 5.891 35.1995 5.85587C35.1644 4.67078 34.1893 3.71753 32.996 3.71753H31.3702C30.1767 3.71753 29.2018 4.67078 29.1667 5.85587C27.9816 5.891 27.0283 6.86608 27.0283 8.05945V9.68529C27.0283 10.8788 27.9816 11.8537 29.1667 11.8889C29.2017 13.0741 30.1767 14.0273 31.3702 14.0273ZM28.9101 9.68529V8.05958C28.9101 7.88168 29.0549 7.7369 29.2329 7.7369H30.0397C30.5955 7.7369 31.0476 7.28474 31.0476 6.72908V5.92224C31.0476 5.74434 31.1923 5.59956 31.3702 5.59956H32.996C33.1739 5.59956 33.3186 5.74434 33.3186 5.92224V6.72908C33.3186 7.28486 33.7707 7.7369 34.3265 7.7369H35.1333C35.3113 7.7369 35.4561 7.88168 35.4561 8.05971V9.68542C35.4561 9.86332 35.3113 10.0081 35.1334 10.0081H34.3265C33.7707 10.0081 33.3186 10.4603 33.3186 11.0159V11.8228C33.3186 12.0007 33.1739 12.1456 32.996 12.1456H31.3702C31.1923 12.1456 31.0476 12.0008 31.0476 11.8229V11.016C31.0476 10.4603 30.5954 10.0082 30.0397 10.0082H29.2329C29.0549 10.0081 28.9101 9.86332 28.9101 9.68529Z" fill="#FFBB01"/>
<path d="M50.9604 42.1138L39.2341 37.7165C38.9267 37.6012 38.7201 37.3032 38.7201 36.9747V32.8175C41.5998 30.8981 43.6174 27.7834 44.0579 24.1876C46.2931 24.0106 48.0583 22.1363 48.0583 19.8563C48.0583 17.6072 46.341 15.7519 44.149 15.5321V6.66156C44.149 4.97399 43.2541 3.37965 41.8136 2.50067L39.5253 1.1043C38.3413 0.381901 36.9825 0 35.5956 0H28.4045C27.0177 0 25.6588 0.381901 24.4748 1.1043L22.1865 2.50067C20.7459 3.37965 19.8511 4.97399 19.8511 6.66156V15.5214C17.5924 15.6744 15.8012 17.5595 15.8012 19.8565C15.8012 22.1845 17.6412 24.0906 19.9433 24.1975C20.3863 27.7891 22.403 30.8998 25.2801 32.8175V36.9747C25.2801 37.3031 25.0735 37.6012 24.766 37.7165L13.0398 42.1138C8.89482 43.6683 6.10999 47.6868 6.10999 52.1134V57.899C6.10999 58.4187 6.53128 58.8399 7.05094 58.8399C7.57059 58.8399 7.99189 58.4187 7.99189 57.899V52.1134C7.99189 48.4668 10.2861 45.1564 13.7005 43.8759L17.334 42.5133V48.5346C15.73 48.9528 14.5427 50.4135 14.5427 52.1466C14.5427 54.2047 16.2169 55.8791 18.275 55.8791C20.333 55.8791 22.0073 54.2047 22.0073 52.1466C22.0073 50.4135 20.8198 48.9528 19.2159 48.5346V41.8076L19.7539 41.6059C19.7791 41.6292 19.8056 41.6518 19.834 41.6727L22.1629 43.4004C25.0294 45.527 28.431 46.651 32.0002 46.651C35.5692 46.651 38.971 45.527 41.8374 43.4004L44.1706 41.6696C44.1976 41.6496 44.2229 41.6283 44.2471 41.6062L45.5493 42.0945V47.7483C43.2009 47.9061 41.3383 49.8657 41.3383 52.2534V59.7056C41.3383 60.2253 41.7595 60.6466 42.2793 60.6466H43.7123C44.2321 60.6466 44.6532 60.2253 44.6532 59.7056C44.6532 59.186 44.2321 58.7647 43.7123 58.7647H43.2202V52.2534C43.2202 50.8006 44.4022 49.6186 45.8549 49.6186H47.0185C48.4712 49.6186 49.6532 50.8006 49.6532 52.2534V58.7647H49.166C48.6464 58.7647 48.2251 59.186 48.2251 59.7056C48.2251 60.2253 48.6464 60.6466 49.166 60.6466H50.5942C51.1139 60.6466 51.5351 60.2253 51.5351 59.7056V52.2534C51.5351 49.9022 49.7289 47.9657 47.4312 47.7564V42.8004L50.2996 43.8761C53.7141 45.1565 56.0083 48.4669 56.0083 52.1136V62.0777C56.0083 62.0999 55.9901 62.1181 55.968 62.1181H8.03229C8.01008 62.1181 7.99189 62.0999 7.99189 62.0777V61.6628C7.99189 61.1431 7.57059 60.7218 7.05094 60.7218C6.53128 60.7218 6.10999 61.1431 6.10999 61.6628V62.0777C6.10999 63.1376 6.9724 64 8.03229 64H55.9679C57.0277 64 57.89 63.1376 57.89 62.0777V52.1135C57.89 47.6868 55.1052 43.6683 50.9604 42.1138ZM20.1254 52.1466C20.1254 53.167 19.2953 53.9972 18.275 53.9972C17.2546 53.9972 16.4246 53.167 16.4246 52.1466C16.4246 51.1263 17.2546 50.2962 18.275 50.2962C19.2953 50.2962 20.1254 51.1263 20.1254 52.1466ZM46.1764 19.8566C46.1764 21.0661 45.2999 22.0727 44.149 22.2798V17.4333C45.2999 17.6403 46.1764 18.647 46.1764 19.8566ZM17.6829 19.8566C17.6829 18.5981 18.6317 17.5589 19.851 17.4119V22.3014C18.6317 22.1543 17.6829 21.1149 17.6829 19.8566ZM21.733 22.7016V17.4031H26.8886C27.4082 17.4031 27.8295 16.9818 27.8295 16.4621C27.8295 15.9425 27.4082 15.5212 26.8886 15.5212H21.733V6.66156C21.733 5.62551 22.2824 4.64667 23.1668 4.10706L25.4552 2.71082C26.3437 2.16858 27.3636 1.8819 28.4045 1.8819H35.5956C36.6366 1.8819 37.6564 2.16858 38.5451 2.71082L40.8333 4.10706C41.7177 4.64667 42.2671 5.62551 42.2671 6.66156V15.5212H30.6524C30.1327 15.5212 29.7114 15.9425 29.7114 16.4621C29.7114 16.9818 30.1327 17.4031 30.6524 17.4031H42.2671V22.7016C42.2671 28.3629 37.6613 32.9687 32.0001 32.9687C26.3388 32.9687 21.733 28.3629 21.733 22.7016ZM40.716 41.8891C38.1763 43.7733 35.1623 44.7692 32.0001 44.7692C28.8377 44.7692 25.8238 43.7733 23.2841 41.8891L21.8452 40.8217L25.4266 39.4787C26.4644 39.0895 27.1618 38.0833 27.1618 36.9749V33.8445C28.6453 34.4911 30.2813 34.8507 32.0001 34.8507C33.7188 34.8507 35.3549 34.4911 36.8382 33.8445V36.9749C36.8382 38.0833 37.5356 39.0895 38.5733 39.4787L42.1548 40.8217L40.716 41.8891Z" fill="#FFBB01"/>
</g>
<defs>
<clipPath id="clip0">
<rect width="64" height="64" fill="white"/>
</clipPath>
</defs>
</svg>
