<svg width="64" height="64" viewBox="0 0 64 64" fill="none" xmlns="http://www.w3.org/2000/svg">
<path d="M47.251 22.9914C47.251 20.8166 46.5318 18.6907 45.1843 16.8824C43.8368 15.0741 41.9216 13.6648 39.6808 12.8325C37.4401 12.0002 34.9744 11.7825 32.5956 12.2068C30.2168 12.6311 28.0317 13.6783 26.3167 15.2161C24.6017 16.7539 23.4338 18.7132 22.9606 20.8462C22.4874 22.9792 22.7303 25.1901 23.6584 27.1993C24.5866 29.2086 26.1584 30.9259 28.175 32.1341C30.1917 33.3424 32.5626 33.9873 34.988 33.9873C38.2403 33.9873 41.3595 32.8288 43.6592 30.7666C45.959 28.7045 47.251 25.9077 47.251 22.9914ZM24.9546 22.9914C24.9546 21.212 25.5431 19.4726 26.6455 17.9931C27.748 16.5136 29.315 15.3605 31.1484 14.6796C32.9817 13.9986 34.9991 13.8205 36.9454 14.1676C38.8917 14.5147 40.6795 15.3716 42.0827 16.6298C43.4858 17.888 44.4414 19.491 44.8286 21.2362C45.2157 22.9814 45.017 24.7903 44.2576 26.4342C43.4982 28.0782 42.2122 29.4832 40.5622 30.4718C38.9123 31.4604 36.9724 31.988 34.988 31.988C32.327 31.988 29.7749 31.0402 27.8933 29.353C26.0117 27.6658 24.9546 25.3774 24.9546 22.9914Z" fill="#FFBB01"/>
<path d="M51.7103 22.9914C51.7103 20.0257 50.7296 17.1267 48.8921 14.6609C47.0546 12.1951 44.443 10.2732 41.3874 9.13834C38.3318 8.00345 34.9695 7.70651 31.7257 8.28507C28.4819 8.86363 25.5023 10.2917 23.1636 12.3887C20.8249 14.4857 19.2323 17.1575 18.5871 20.0661C17.9418 22.9747 18.273 25.9896 19.5387 28.7295C20.8043 31.4693 22.9477 33.8111 25.6976 35.4587C28.4476 37.1063 31.6807 37.9857 34.988 37.9857C39.4231 37.9857 43.6764 36.406 46.8125 33.594C49.9485 30.782 51.7103 26.9681 51.7103 22.9914ZM20.4954 22.9914C20.4954 20.4212 21.3454 17.9087 22.9378 15.7716C24.5303 13.6346 26.7938 11.969 29.4419 10.9854C32.0901 10.0018 35.0041 9.74449 37.8154 10.2459C40.6267 10.7473 43.2091 11.985 45.2359 13.8024C47.2627 15.6198 48.643 17.9353 49.2022 20.4561C49.7614 22.9769 49.4744 25.5898 48.3775 27.9644C47.2806 30.3389 45.423 32.3685 43.0397 33.7964C40.6564 35.2243 37.8544 35.9865 34.988 35.9865C31.1444 35.9865 27.4581 34.6174 24.7402 32.1803C22.0223 29.7432 20.4954 26.4379 20.4954 22.9914Z" fill="#FFBB01"/>
<path d="M36.1029 28.9892V27.9895C36.9899 27.9895 37.8406 27.6736 38.4678 27.1112C39.095 26.5488 39.4474 25.786 39.4474 24.9907C39.4474 24.1953 39.095 23.4325 38.4678 22.8701C37.8406 22.3077 36.9899 21.9918 36.1029 21.9918H33.8733C33.5776 21.9918 33.294 21.8865 33.085 21.699C32.8759 21.5115 32.7584 21.2573 32.7584 20.9922C32.7584 20.727 32.8759 20.4728 33.085 20.2853C33.294 20.0978 33.5776 19.9925 33.8733 19.9925H38.3325C38.6282 19.9925 38.9118 19.8872 39.1208 19.6997C39.3299 19.5123 39.4474 19.258 39.4474 18.9929C39.4474 18.7278 39.3299 18.4735 39.1208 18.2861C38.9118 18.0986 38.6282 17.9933 38.3325 17.9933H36.1029V16.9936C36.1029 16.7285 35.9854 16.4743 35.7764 16.2868C35.5673 16.0993 35.2838 15.994 34.9881 15.994C34.6924 15.994 34.4089 16.0993 34.1998 16.2868C33.9907 16.4743 33.8733 16.7285 33.8733 16.9936V17.9933C32.9863 17.9933 32.1356 18.3092 31.5084 18.8716C30.8812 19.434 30.5288 20.1968 30.5288 20.9922C30.5288 21.7875 30.8812 22.5503 31.5084 23.1127C32.1356 23.6751 32.9863 23.991 33.8733 23.991H36.1029C36.3986 23.991 36.6821 24.0963 36.8912 24.2838C37.1003 24.4713 37.2177 24.7255 37.2177 24.9907C37.2177 25.2558 37.1003 25.51 36.8912 25.6975C36.6821 25.885 36.3986 25.9903 36.1029 25.9903H31.6436C31.348 25.9903 31.0644 26.0956 30.8553 26.2831C30.6463 26.4705 30.5288 26.7248 30.5288 26.9899C30.5288 27.255 30.6463 27.5093 30.8553 27.6968C31.0644 27.8842 31.348 27.9895 31.6436 27.9895H33.8733V28.9892C33.8733 29.2543 33.9907 29.5085 34.1998 29.696C34.4089 29.8835 34.6924 29.9888 34.9881 29.9888C35.2838 29.9888 35.5673 29.8835 35.7764 29.696C35.9854 29.5085 36.1029 29.2543 36.1029 28.9892Z" fill="#FFBB01"/>
<path d="M63.9733 62.7565L60.7404 50.1013C60.0235 47.2226 58.231 44.65 55.66 42.8101C53.089 40.9702 49.8939 39.9734 46.6045 39.9851C42.279 39.9851 44.8096 40.5448 49.0348 37.1861L52.8809 39.1854C53.0081 39.2514 53.1487 39.2943 53.2945 39.3115C53.4403 39.3287 53.5884 39.3198 53.7304 39.2854C53.8723 39.2511 54.0053 39.1918 54.1216 39.1112C54.238 39.0305 54.3354 38.93 54.4082 38.8155L59.9823 30.1587C60.056 30.0446 60.1038 29.9186 60.123 29.7879C60.1421 29.6571 60.1322 29.5243 60.0939 29.397C60.0556 29.2697 59.9895 29.1505 59.8996 29.0462C59.8096 28.9419 59.6975 28.8545 59.5698 28.7892L55.7237 26.79C56.3201 24.2791 56.3201 21.6837 55.7237 19.1728L59.5698 17.1736C59.6975 17.1083 59.8096 17.021 59.8996 16.9166C59.9895 16.8123 60.0556 16.6931 60.0939 16.5658C60.1322 16.4385 60.1421 16.3057 60.123 16.175C60.1038 16.0442 60.056 15.9182 59.9823 15.8041L54.4082 7.14733C54.3354 7.03278 54.238 6.93229 54.1216 6.85164C54.0053 6.77098 53.8723 6.71176 53.7304 6.67738C53.5884 6.643 53.4403 6.63415 53.2945 6.65133C53.1487 6.6685 53.0081 6.71137 52.8809 6.77747L49.0348 8.77672C46.8881 7.08941 44.3863 5.80462 41.677 4.99813V0.999626C41.677 0.734509 41.5595 0.48025 41.3504 0.292784C41.1414 0.105317 40.8578 0 40.5621 0L29.4139 0C29.1183 0 28.8347 0.105317 28.6256 0.292784C28.4166 0.48025 28.2991 0.734509 28.2991 0.999626V4.99813C25.588 5.8106 23.0861 7.10225 20.9413 8.79671L17.1509 6.79746C17.0237 6.73137 16.8831 6.6885 16.7373 6.67132C16.5915 6.65414 16.4434 6.663 16.3014 6.69738C16.1595 6.73175 16.0265 6.79098 15.9102 6.87163C15.7938 6.95228 15.6965 7.05278 15.6236 7.16732C9.57016 16.4938 9.71509 15.994 9.88231 16.5838C10.0495 17.1736 10.1722 17.0736 14.2524 19.1828C13.656 21.6937 13.656 24.2891 14.2524 26.8C10.3394 28.7992 10.0607 28.7992 9.88231 29.399C9.70394 29.9988 9.58131 29.519 15.5679 38.8155C15.6405 38.9369 15.7402 39.0435 15.8609 39.1287C15.9816 39.2139 16.1207 39.2758 16.2693 39.3105C16.4179 39.3452 16.573 39.352 16.7247 39.3305C16.8764 39.309 17.0215 39.2595 17.1509 39.1854L20.9971 37.1861C25.0439 40.4549 27.4742 39.9851 23.8398 39.9851C20.4728 39.8778 17.1701 40.8308 14.5046 42.6786C11.8391 44.5263 9.97898 47.1524 9.24686 50.1013L6.00274 62.7565C5.93769 63.0217 5.99276 63.2991 6.15584 63.5278C6.31891 63.7565 6.57663 63.9178 6.8723 63.9761C7.16797 64.0344 7.47736 63.985 7.73243 63.8388C7.98749 63.6926 8.16733 63.4615 8.23238 63.1964L11.4542 50.5411C12.0115 48.2548 13.3728 46.1894 15.3376 44.6489C17.3024 43.1085 19.7669 42.1744 22.3683 41.9843C19.2468 52.2605 19.0238 52.0705 19.7039 52.6503L22.4017 55.0694C20.6515 57.4285 20.0829 57.8584 20.7518 58.5781L25.4006 63.5762C25.5898 63.7804 25.8617 63.9088 26.1565 63.9331C26.4513 63.9575 26.7448 63.8759 26.9725 63.7062C27.2002 63.5365 27.3433 63.2927 27.3705 63.0284C27.3977 62.764 27.3066 62.5009 27.1174 62.2967L23.0037 57.8684L24.7651 55.4893C24.9083 55.2977 24.9731 55.0676 24.9488 54.8381C24.9244 54.6086 24.8123 54.3936 24.6314 54.2297L21.744 51.6807L24.6871 41.9843H25.1776C28.9234 57.3686 30.2501 62.8165 30.3058 63.1264C30.3329 63.2577 30.3885 63.3829 30.4696 63.4949C30.5506 63.6069 30.6555 63.7034 30.7782 63.7791C30.9008 63.8547 31.0389 63.908 31.1845 63.9358C31.3302 63.9636 31.4805 63.9654 31.6269 63.9411C31.7733 63.9168 31.9129 63.8669 32.0378 63.7942C32.1627 63.7216 32.2704 63.6275 32.3547 63.5176C32.4391 63.4076 32.4985 63.2837 32.5295 63.1532C32.5605 63.0226 32.5625 62.8878 32.5354 62.7565L33.6503 53.0802C33.6927 52.7836 33.8542 52.5111 34.1045 52.3135C34.3549 52.116 34.6769 52.0071 35.0103 52.0071C35.3438 52.0071 35.6658 52.116 35.9161 52.3135C36.1665 52.5111 36.328 52.7836 36.3704 53.0802L37.4852 62.7465C37.4706 62.8778 37.4849 63.0104 37.5274 63.1367C37.5699 63.263 37.6398 63.3806 37.7329 63.4827C37.8261 63.5848 37.9408 63.6694 38.0704 63.7318C38.2001 63.7942 38.3422 63.833 38.4886 63.8461C38.635 63.8593 38.7828 63.8464 38.9237 63.8083C39.0645 63.7702 39.1956 63.7076 39.3095 63.624C39.4234 63.5405 39.5178 63.4377 39.5873 63.3214C39.6569 63.2051 39.7002 63.0777 39.7149 62.9465C45.3782 39.6752 44.5978 41.9543 45.289 41.9543L48.2321 51.6507L45.3447 54.2397C45.1638 54.4036 45.0517 54.6186 45.0273 54.8481C45.0029 55.0776 45.0678 55.3077 45.2109 55.4993L46.9723 57.8784L42.8587 62.3067C42.6694 62.5109 42.5784 62.774 42.6056 63.0384C42.6328 63.3027 42.7759 63.5465 43.0036 63.7162C43.2313 63.8859 43.5248 63.9675 43.8195 63.9431C44.1143 63.9188 44.3863 63.7904 44.5755 63.5862L49.2243 58.5881C49.9043 57.8484 49.2243 57.3686 47.5743 55.0794C50.5732 52.3804 50.7739 52.3904 50.5509 51.6907L47.6078 41.9843C50.207 42.1746 52.6709 43.103 54.6416 44.6345C56.6123 46.1661 57.9872 48.2211 58.5665 50.5011L61.7437 63.1964C61.8087 63.4615 61.9886 63.6926 62.2436 63.8388C62.4987 63.985 62.8081 64.0344 63.1038 63.9761C63.3994 63.9178 63.6572 63.7565 63.8202 63.5278C63.9833 63.2991 64.0384 63.0217 63.9733 62.7565ZM16.9503 36.9862L12.491 30.0688C16.1141 28.1895 16.8611 28.0695 16.6047 27.0699C15.8464 24.4002 15.8464 21.6026 16.6047 18.9329C16.8722 17.9333 16.0473 17.8133 12.491 15.934L16.9503 9.01663L20.4954 10.8959C22.1453 11.7456 22.7808 8.46684 29.6815 6.6775C30.7406 6.39761 30.4842 5.67788 30.4842 1.99925H39.4027V5.71786C39.4027 7.43722 42.7472 6.20768 48.0649 10.716C48.8675 11.4057 49.4249 10.8459 52.9812 9.00663L57.4405 15.924C51.1752 19.2228 53.94 17.0436 53.94 22.9914C53.94 28.9392 51.1975 26.77 57.4851 29.9888L53.0258 36.9062C49.3915 35.0269 48.901 34.5171 48.1095 35.1968C42.9144 39.6652 39.4473 38.5156 39.4473 40.195C39.4473 40.5349 40.0939 39.9751 34.988 43.6337C29.8933 39.9751 30.5288 40.5349 30.5288 40.195C30.5288 38.4756 27.1843 39.7052 21.8666 35.1968C21.0751 34.5471 20.4954 35.1069 16.9503 36.9862ZM40.7182 49.3815C37.3737 62.9265 40.1831 53.49 37.6079 51.0109C38.1877 50.5235 38.5783 49.8825 38.7227 49.1816L38.8788 48.3219L40.7182 49.3815ZM36.4819 48.8517C36.4209 49.1673 36.2375 49.4534 35.9642 49.6596C35.6909 49.8659 35.3452 49.9789 34.988 49.9789C34.6308 49.9789 34.2851 49.8659 34.0118 49.6596C33.7385 49.4534 33.5552 49.1673 33.4942 48.8517L33.182 47.1724L34.988 46.1727L36.794 47.1724L36.4819 48.8517ZM30.9858 56.4989L29.2579 49.3715L31.1308 48.3719C31.1613 49.3505 31.6033 50.2825 32.3682 50.9809C31.3203 51.9806 31.4429 52.6203 30.9858 56.4989ZM29.0238 41.9843L33.0594 44.8832L28.745 47.3023L27.4519 41.9843H29.0238ZM41.2868 47.3023L36.9167 44.8832L40.9523 41.9843H42.5242L41.2868 47.3023Z" fill="#FFBB01"/>
</svg>
