<svg width="64" height="65" viewBox="0 0 64 65" fill="none" xmlns="http://www.w3.org/2000/svg">
<path d="M43.7071 2.39609C43.6143 2.30323 43.504 2.22957 43.3827 2.17932C43.2614 2.12907 43.1313 2.10321 43 2.10321H15C13.1441 2.10529 11.3649 2.84346 10.0526 4.15577C8.74025 5.46807 8.00208 7.24733 8 9.10321V55.1032C8.00208 56.9591 8.74025 58.7384 10.0526 60.0507C11.3649 61.363 13.1441 62.1011 15 62.1032H49C50.8559 62.1011 52.6351 61.363 53.9474 60.0507C55.2598 58.7384 55.9979 56.9591 56 55.1032V15.1032C56 14.9719 55.9742 14.8418 55.9239 14.7205C55.8736 14.5992 55.8 14.4889 55.7071 14.3961L43.7071 2.39609ZM44 5.51734L52.5859 14.1032H49C47.6744 14.1017 46.4035 13.5745 45.4661 12.6371C44.5288 11.6997 44.0015 10.4288 44 9.10321V5.51734ZM15 4.10321H42V9.10321C42.0021 10.9591 42.7403 12.7384 44.0526 14.0507C45.3649 15.363 47.1441 16.1011 49 16.1032H54V44.1032H10V9.10321C10.0015 7.77759 10.5288 6.50668 11.4661 5.56932C12.4035 4.63196 13.6744 4.1047 15 4.10321ZM49 60.1032H15C13.6744 60.1017 12.4035 59.5745 11.4661 58.6371C10.5288 57.6997 10.0015 56.4288 10 55.1032V46.1032H54V55.1032C53.9985 56.4288 53.4713 57.6997 52.5339 58.6371C51.5965 59.5745 50.3256 60.1017 49 60.1032Z" fill="#FFBB01"/>
<path d="M30 48.1032C29.7348 48.1032 29.4804 48.2086 29.2929 48.3961C29.1054 48.5836 29 48.838 29 49.1032V55.1032C29 55.3684 28.8946 55.6228 28.7071 55.8103C28.5196 55.9979 28.2652 56.1032 28 56.1032C27.7348 56.1032 27.4804 55.9979 27.2929 55.8103C27.1054 55.6228 27 55.3684 27 55.1032C27 54.838 26.8946 54.5836 26.7071 54.3961C26.5196 54.2086 26.2652 54.1032 26 54.1032C25.7348 54.1032 25.4804 54.2086 25.2929 54.3961C25.1054 54.5836 25 54.838 25 55.1032C25 55.8989 25.3161 56.6619 25.8787 57.2245C26.4413 57.7871 27.2044 58.1032 28 58.1032C28.7957 58.1032 29.5587 57.7871 30.1213 57.2245C30.6839 56.6619 31 55.8989 31 55.1032V49.1032C31 48.838 30.8946 48.5836 30.7071 48.3961C30.5196 48.2086 30.2652 48.1032 30 48.1032Z" fill="#FFBB01"/>
<path d="M36 50.1032H38C38.2652 50.1032 38.5196 49.9979 38.7071 49.8103C38.8946 49.6228 39 49.3684 39 49.1032C39 48.838 38.8946 48.5836 38.7071 48.3961C38.5196 48.2086 38.2652 48.1032 38 48.1032H36C35.2043 48.1032 34.4413 48.4193 33.8787 48.9819C33.3161 49.5445 33 50.3076 33 51.1032C33 51.8989 33.3161 52.6619 33.8787 53.2245C34.4413 53.7871 35.2043 54.1032 36 54.1032C36.2652 54.1032 36.5196 54.2086 36.7071 54.3961C36.8946 54.5836 37 54.838 37 55.1032C37 55.3684 36.8946 55.6228 36.7071 55.8103C36.5196 55.9979 36.2652 56.1032 36 56.1032H34C33.7348 56.1032 33.4804 56.2086 33.2929 56.3961C33.1054 56.5836 33 56.838 33 57.1032C33 57.3684 33.1054 57.6228 33.2929 57.8103C33.4804 57.9979 33.7348 58.1032 34 58.1032H36C36.7956 58.1032 37.5587 57.7871 38.1213 57.2245C38.6839 56.6619 39 55.8989 39 55.1032C39 54.3076 38.6839 53.5445 38.1213 52.9819C37.5587 52.4193 36.7956 52.1032 36 52.1032C35.7348 52.1032 35.4804 51.9979 35.2929 51.8103C35.1054 51.6228 35 51.3684 35 51.1032C35 50.838 35.1054 50.5836 35.2929 50.3961C35.4804 50.2086 35.7348 50.1032 36 50.1032Z" fill="#FFBB01"/>
<path d="M36 28.1032C36.5523 28.1032 37 27.6555 37 27.1032C37 26.5509 36.5523 26.1032 36 26.1032C35.4477 26.1032 35 26.5509 35 27.1032C35 27.6555 35.4477 28.1032 36 28.1032Z" fill="#FFBB01"/>
<path d="M28 28.1032C28.5523 28.1032 29 27.6555 29 27.1032C29 26.5509 28.5523 26.1032 28 26.1032C27.4477 26.1032 27 26.5509 27 27.1032C27 27.6555 27.4477 28.1032 28 28.1032Z" fill="#FFBB01"/>
<path d="M32 28.1032C32.5523 28.1032 33 27.6555 33 27.1032C33 26.5509 32.5523 26.1032 32 26.1032C31.4477 26.1032 31 26.5509 31 27.1032C31 27.6555 31.4477 28.1032 32 28.1032Z" fill="#FFBB01"/>
<path d="M19 28.1032C19.2651 28.1035 19.5193 28.209 19.7068 28.3964C19.8943 28.5839 19.9997 28.8381 20 29.1032V33.1032C20.0009 33.8986 20.3173 34.6611 20.8797 35.2235C21.4421 35.7859 22.2046 36.1023 23 36.1032C23.2652 36.1032 23.5196 35.9979 23.7071 35.8103C23.8946 35.6228 24 35.3684 24 35.1032C24 34.838 23.8946 34.5836 23.7071 34.3961C23.5196 34.2086 23.2652 34.1032 23 34.1032C22.7349 34.1029 22.4807 33.9975 22.2932 33.81C22.1058 33.6225 22.0003 33.3683 22 33.1032V29.1032C22.0007 28.3648 21.7279 27.6523 21.2343 27.1032C21.7279 26.5541 22.0007 25.8416 22 25.1032V21.1032C22.0003 20.8381 22.1058 20.5839 22.2932 20.3964C22.4807 20.209 22.7349 20.1035 23 20.1032C23.2652 20.1032 23.5196 19.9979 23.7071 19.8103C23.8946 19.6228 24 19.3684 24 19.1032C24 18.838 23.8946 18.5836 23.7071 18.3961C23.5196 18.2086 23.2652 18.1032 23 18.1032C22.2046 18.1041 21.4421 18.4205 20.8797 18.9829C20.3173 19.5453 20.0009 20.3078 20 21.1032V25.1032C19.9997 25.3683 19.8943 25.6225 19.7068 25.81C19.5193 25.9975 19.2651 26.1029 19 26.1032C18.7348 26.1032 18.4804 26.2086 18.2929 26.3961C18.1054 26.5836 18 26.838 18 27.1032C18 27.3684 18.1054 27.6228 18.2929 27.8103C18.4804 27.9979 18.7348 28.1032 19 28.1032Z" fill="#FFBB01"/>
<path d="M42 33.1032C41.9997 33.3683 41.8943 33.6225 41.7068 33.81C41.5193 33.9975 41.2651 34.1029 41 34.1032C40.7348 34.1032 40.4804 34.2086 40.2929 34.3961C40.1054 34.5836 40 34.838 40 35.1032C40 35.3684 40.1054 35.6228 40.2929 35.8103C40.4804 35.9979 40.7348 36.1032 41 36.1032C41.7954 36.1023 42.5579 35.7859 43.1203 35.2235C43.6827 34.6611 43.9991 33.8986 44 33.1032V29.1032C44.0003 28.8381 44.1057 28.5839 44.2932 28.3964C44.4807 28.209 44.7349 28.1035 45 28.1032C45.2652 28.1032 45.5196 27.9979 45.7071 27.8103C45.8946 27.6228 46 27.3684 46 27.1032C46 26.838 45.8946 26.5836 45.7071 26.3961C45.5196 26.2086 45.2652 26.1032 45 26.1032C44.7349 26.1029 44.4807 25.9975 44.2932 25.81C44.1057 25.6225 44.0003 25.3683 44 25.1032V21.1032C43.9991 20.3078 43.6827 19.5453 43.1203 18.9829C42.5579 18.4205 41.7954 18.1041 41 18.1032C40.7348 18.1032 40.4804 18.2086 40.2929 18.3961C40.1054 18.5836 40 18.838 40 19.1032C40 19.3684 40.1054 19.6228 40.2929 19.8103C40.4804 19.9979 40.7348 20.1032 41 20.1032C41.2651 20.1035 41.5193 20.209 41.7068 20.3964C41.8943 20.5839 41.9997 20.8381 42 21.1032V25.1032C41.9993 25.8416 42.2721 26.5541 42.7658 27.1032C42.2721 27.6523 41.9993 28.3648 42 29.1032V33.1032Z" fill="#FFBB01"/>
</svg>
