<svg width="64" height="64" viewBox="0 0 64 64" fill="none" xmlns="http://www.w3.org/2000/svg">
<path d="M55.4667 38.4H56.5334C57.1225 38.4 57.6 37.9224 57.6 37.3333C57.6 36.7442 57.1225 36.2667 56.5334 36.2667H52.2667V34.1333C52.2667 33.5442 51.7892 33.0667 51.2 33.0667C50.6109 33.0667 50.1334 33.5442 50.1334 34.1333V36.2667H45.8667C45.2776 36.2667 44.8 36.7442 44.8 37.3333C44.8 37.9224 45.2776 38.4 45.8667 38.4H53.3334V40.5333C53.3334 42.212 52.543 43.7928 51.2 44.8C50.368 44.1734 49.7376 43.3168 49.3867 42.336C49.1751 41.7988 48.5744 41.5276 48.0315 41.724C47.4886 41.9203 47.2004 42.513 47.3814 43.0613C47.7384 44.0736 48.3138 44.9949 49.0667 45.76C48.0063 45.9024 46.9343 45.9382 45.8667 45.8666C45.2776 45.8666 44.8 46.3442 44.8 46.9333C44.8 47.5224 45.2776 48 45.8667 48C48.096 48 49.376 48.1387 51.2 47.264C53.0454 48.1387 54.2827 48 56.5334 48C57.1225 48 57.6 47.5224 57.6 46.9333C57.6 46.3442 57.1225 45.8666 56.5334 45.8666C55.4657 45.9496 54.3921 45.9103 53.3334 45.7493C55.744 43.2853 55.4667 40.7147 55.4667 38.4Z" fill="#FFBB01"/>
<path d="M1.06667 64H37.3333C37.9224 64 38.4 63.5224 38.4 62.9333V62.08C38.4048 59.3976 36.9498 56.9251 34.6027 55.6267L27.3387 51.0827C26.2774 50.4955 25.6134 49.3834 25.6 48.1707V44.8C27.547 42.898 28.9533 40.5125 29.6747 37.888C30.4513 37.3771 30.9231 36.5135 30.9333 35.584V31.904C30.8787 31.1055 30.4917 30.3665 29.8667 29.8667V24.4587C29.8667 24.1067 29.12 16 19.2 16C9.28 16 8.53333 24.1813 8.53333 24.5973V29.8667C7.90561 30.369 7.51842 31.1124 7.46667 31.9147V35.5947C7.47217 36.5338 7.94904 37.4074 8.736 37.92C9.44798 40.5368 10.8518 42.9134 12.8 44.8V48.1707C12.7946 49.4475 12.0791 50.6153 10.944 51.2L3.904 55.616C1.52871 56.9053 0.0355628 59.3776 0 62.08V62.9333C0 63.5224 0.477563 64 1.06667 64ZM4.98133 57.408L12.0213 52.9813C13.8014 52.0338 14.9192 50.1872 14.9333 48.1707V44.8C14.9344 44.205 14.6869 43.6366 14.2507 43.232C12.6162 41.6328 11.4316 39.6315 10.816 37.4293C10.528 36.16 9.6 36.2667 9.6 35.584V31.9253C9.68031 31.7384 9.80476 31.5737 9.96267 31.4453C10.4096 31.042 10.6652 30.4686 10.6667 29.8667V24.672C10.6667 24 11.3173 18.1333 19.2 18.1333C27.0827 18.1333 27.7333 23.9467 27.7333 24.5333V29.8667C27.7333 31.1787 28.6827 31.4773 28.8 31.904V35.584C28.7993 35.8014 28.6863 36.0031 28.5013 36.1173C28.0368 36.419 27.7079 36.8895 27.584 37.4293C26.9684 39.6315 25.7838 41.6328 24.1493 43.232C23.7131 43.6366 23.4656 44.205 23.4667 44.8V48.1707C23.4623 50.1443 24.5334 51.9636 26.2613 52.9173L33.5253 57.472C35.1457 58.3557 36.1856 60.0228 36.2667 61.8667H2.13333C2.22664 59.9811 3.30979 58.2854 4.98133 57.408Z" fill="#FFBB01"/>
<path d="M58.6667 28.8H43.7334C40.7878 28.8 38.4 31.1879 38.4 34.1334V35.6907L32.48 39.648C32.1852 39.8462 32.0083 40.1781 32.0083 40.5334C32.0083 40.8886 32.1852 41.2206 32.48 41.4187L38.4 45.376V46.9334C38.4 49.8789 40.7878 52.2667 43.7334 52.2667H58.6667C61.6122 52.2667 64 49.8789 64 46.9334V34.1334C64 31.1879 61.6122 28.8 58.6667 28.8ZM61.8667 46.9334C61.8667 48.7007 60.434 50.1334 58.6667 50.1334H43.7334C41.966 50.1334 40.5334 48.7007 40.5334 46.9334V44.8C40.5315 44.4432 40.3514 44.111 40.0534 43.9147L34.9867 40.5334L40.0534 37.1521C40.3514 36.9558 40.5315 36.6235 40.5334 36.2667V34.1334C40.5334 32.3661 41.966 30.9334 43.7334 30.9334H58.6667C60.434 30.9334 61.8667 32.3661 61.8667 34.1334V46.9334Z" fill="#FFBB01"/>
<path d="M58.6667 0H43.7334C40.7878 0 38.4 2.38781 38.4 5.33333V6.89067L32.48 10.848C32.1852 11.0461 32.0083 11.3781 32.0083 11.7333C32.0083 12.0886 32.1852 12.4205 32.48 12.6187L38.4 16.576V18.1333C38.4 21.0788 40.7878 23.4667 43.7334 23.4667H58.6667C61.6122 23.4667 64 21.0788 64 18.1333V5.33333C64 2.38781 61.6122 0 58.6667 0ZM61.8667 18.1333C61.8667 19.9006 60.434 21.3333 58.6667 21.3333H43.7334C41.966 21.3333 40.5334 19.9006 40.5334 18.1333V16C40.5315 15.6432 40.3514 15.3109 40.0534 15.1147L34.9867 11.7333L40.0534 8.352C40.3514 8.15575 40.5315 7.82349 40.5334 7.46667V5.33333C40.5334 3.56602 41.966 2.13333 43.7334 2.13333H58.6667C60.434 2.13333 61.8667 3.56602 61.8667 5.33333V18.1333Z" fill="#FFBB01"/>
<path d="M51.2 4.2666C47.6654 4.2666 44.8 7.13198 44.8 10.6666V18.1333C44.8 18.7224 45.2776 19.1999 45.8667 19.1999C46.4558 19.1999 46.9334 18.7224 46.9334 18.1333V13.8666H55.4667V18.1333C55.4667 18.7224 55.9443 19.1999 56.5334 19.1999C57.1225 19.1999 57.6 18.7224 57.6 18.1333V10.6666C57.6 7.13198 54.7347 4.2666 51.2 4.2666ZM46.9334 11.7333V10.6666C46.9334 8.31019 48.8436 6.39993 51.2 6.39993C53.5565 6.39993 55.4667 8.31019 55.4667 10.6666V11.7333H46.9334Z" fill="#FFBB01"/>
</svg>
