<svg width="64" height="65" viewBox="0 0 64 65" fill="none" xmlns="http://www.w3.org/2000/svg">
<g clip-path="url(#clip0)">
<path d="M60.8001 0.10321H3.20012C1.43587 0.10321 0.00012207 1.53896 0.00012207 3.30321V9.70321V60.9032C0.00012207 62.6675 1.43587 64.1032 3.20012 64.1032H60.8001C62.5644 64.1032 64.0001 62.6675 64.0001 60.9032V9.70321V3.30321C64.0001 1.53896 62.5644 0.10321 60.8001 0.10321ZM2.1335 3.30321C2.1335 2.71546 2.61237 2.23659 3.20012 2.23659H60.8001C61.3879 2.23659 61.8667 2.71546 61.8667 3.30321V8.63659H2.1335V3.30321ZM61.8667 60.9032C61.8667 61.491 61.3879 61.9698 60.8001 61.9698H3.20012C2.61237 61.9698 2.1335 61.491 2.1335 60.9032V10.7698H61.8669V60.9032H61.8667Z" fill="#FFBB01"/>
<path d="M5.33347 6.50318C5.92255 6.50318 6.4001 6.02564 6.4001 5.43656C6.4001 4.84748 5.92255 4.36993 5.33347 4.36993C4.74439 4.36993 4.26685 4.84748 4.26685 5.43656C4.26685 6.02564 4.74439 6.50318 5.33347 6.50318Z" fill="#FFBB01"/>
<path d="M9.60007 6.50318C10.1892 6.50318 10.6667 6.02564 10.6667 5.43656C10.6667 4.84748 10.1892 4.36993 9.60007 4.36993C9.01099 4.36993 8.53345 4.84748 8.53345 5.43656C8.53345 6.02564 9.01099 6.50318 9.60007 6.50318Z" fill="#FFBB01"/>
<path d="M13.8668 6.50318C14.4559 6.50318 14.9334 6.02564 14.9334 5.43656C14.9334 4.84748 14.4559 4.36993 13.8668 4.36993C13.2777 4.36993 12.8002 4.84748 12.8002 5.43656C12.8002 6.02564 13.2777 6.50318 13.8668 6.50318Z" fill="#FFBB01"/>
<path d="M17.0668 37.4366V43.8366C17.0668 44.4254 17.5446 44.9032 18.1334 44.9032C18.7221 44.9032 19.2 44.4254 19.2 43.8366V38.5032H22.4C24.1643 38.5032 25.6 37.0675 25.6 35.3032V33.1698C25.6 31.4056 24.1643 29.9698 22.4 29.9698H18.1334C17.5446 29.9698 17.0668 30.4477 17.0668 31.0365V37.4366ZM23.4668 33.1698V35.3032C23.4668 35.891 22.9879 36.3699 22.4001 36.3699H19.2001V32.1032H22.4001C22.9879 32.1032 23.4668 32.5821 23.4668 33.1698Z" fill="#FFBB01"/>
<path d="M39.4668 44.9032C40.0555 44.9032 40.5334 44.4254 40.5334 43.8366V38.5032H43.7334C45.4976 38.5032 46.9334 37.0675 46.9334 35.3032V33.1698C46.9334 31.4056 45.4976 29.9698 43.7334 29.9698H39.4668C38.878 29.9698 38.4001 30.4477 38.4001 31.0365V37.4365V43.8365C38.4001 44.4254 38.878 44.9032 39.4668 44.9032ZM44.8001 33.1698V35.3032C44.8001 35.891 44.3213 36.3699 43.7335 36.3699H40.5335V32.1032H43.7335C44.3213 32.1032 44.8001 32.5821 44.8001 33.1698Z" fill="#FFBB01"/>
<path d="M28.8001 44.9032C29.3889 44.9032 29.8668 44.4254 29.8668 43.8366V38.5032H33.0668C33.6545 38.5032 34.1334 38.9821 34.1334 39.5699V43.8365C34.1334 44.4252 34.6113 44.9031 35.2 44.9031C35.7888 44.9031 36.2666 44.4252 36.2666 43.8365V39.5699C36.2666 37.8056 34.8309 36.3699 33.0667 36.3699H29.8667V31.0365C29.8667 30.4477 29.3888 29.9698 28.8 29.9698C28.2113 29.9698 27.7334 30.4477 27.7334 31.0365V43.8365C27.7335 44.4254 28.2114 44.9032 28.8001 44.9032Z" fill="#FFBB01"/>
<path d="M11.7335 40.0115V43.8366C11.7335 46.1896 13.647 48.1032 16.0002 48.1032C16.5889 48.1032 17.0668 47.6254 17.0668 47.0366C17.0668 46.4479 16.5889 45.97 16.0002 45.97C14.8237 45.97 13.8668 45.0132 13.8668 43.8366V39.57C13.8668 39.2873 13.7548 39.0153 13.5543 38.8158L11.1084 36.37L13.5543 33.9241C13.7548 33.7246 13.8668 33.4526 13.8668 33.17V28.9032C13.8668 27.7267 14.8235 26.7698 16.0002 26.7698C16.5889 26.7698 17.0668 26.292 17.0668 25.7032C17.0668 25.1145 16.5889 24.6366 16.0002 24.6366C13.647 24.6366 11.7335 26.5502 11.7335 28.9032V32.7283L8.84605 35.6158C8.42892 36.033 8.42892 36.7071 8.84605 37.1241L11.7335 40.0115Z" fill="#FFBB01"/>
<path d="M48.0001 26.7698C49.1808 26.7698 50.142 27.7266 50.142 28.9011L50.1335 33.1677C50.1335 33.4515 50.2455 33.7235 50.446 33.924L52.8918 36.3698L50.446 38.8157C50.2455 39.0152 50.1335 39.2872 50.1335 39.5698V43.8365C50.1335 45.013 49.1767 45.9698 48.0001 45.9698C47.4113 45.9698 46.9335 46.4477 46.9335 47.0365C46.9335 47.6252 47.4113 48.1032 48.0001 48.1032C50.3532 48.1032 52.2667 46.1896 52.2667 43.8366V40.0115L55.1542 37.124C55.5713 36.7068 55.5713 36.0327 55.1542 35.6157L52.2678 32.7282L52.2753 28.9031C52.2753 26.55 50.3575 24.6365 48.0001 24.6365C47.4113 24.6365 46.9335 25.1143 46.9335 25.7031C46.9335 26.292 47.4113 26.7698 48.0001 26.7698Z" fill="#FFBB01"/>
</g>
<defs>
<clipPath id="clip0">
<rect width="64" height="64" fill="white" transform="translate(0.00012207 0.10321)"/>
</clipPath>
</defs>
</svg>
