<svg width="65" height="65" viewBox="0 0 65 65" fill="none" xmlns="http://www.w3.org/2000/svg">
<g clip-path="url(#clip0)">
<path d="M32.9597 0.614319C15.3197 0.614319 0.959717 14.9637 0.959717 32.6143C0.959717 50.2543 15.3197 64.6143 32.9597 64.6143C50.5997 64.6143 64.9597 50.2543 64.9597 32.6143C64.9597 14.961 50.5997 0.614319 32.9597 0.614319ZM4.18638 32.6117C4.18638 28.4437 5.07438 24.4837 6.67705 20.9077L20.4051 58.5077C10.8024 53.8383 4.18638 43.9957 4.18638 32.6117ZM32.9597 61.3877C30.1331 61.3877 27.4104 60.9743 24.8317 60.2117L33.4637 35.129L42.3037 59.361C42.3677 59.505 42.4344 59.6303 42.5091 59.761C39.5277 60.8063 36.3144 61.3877 32.9597 61.3877ZM36.9197 19.1343V19.1317C38.6477 19.041 40.2077 18.8623 40.2077 18.8623C41.7571 18.681 41.5757 16.3983 40.0264 16.4863C40.0264 16.4863 35.3677 16.8463 32.3624 16.8463C29.5357 16.8463 24.7864 16.4863 24.7864 16.4863C23.2397 16.3957 23.0611 18.7717 24.6077 18.8623C24.6077 18.8623 26.0771 19.0437 27.6264 19.1317L32.1037 31.4143L25.8077 50.2917L15.333 19.1317C17.0637 19.041 18.6237 18.8623 18.6237 18.8623C20.173 18.681 19.9917 16.3983 18.4424 16.4863C18.4424 16.4863 13.7837 16.8463 10.7784 16.8463C10.2371 16.8463 9.60238 16.833 8.91972 16.809C14.069 9.00099 22.9064 3.84099 32.9597 3.84099C40.445 3.84099 47.2691 6.70765 52.3917 11.3877C52.2611 11.3743 52.1464 11.3637 52.0184 11.3637C49.1917 11.3637 47.1917 13.8277 47.1917 16.473C47.1917 18.8463 48.5597 20.8463 50.0184 23.2223C51.1144 25.1317 52.3944 27.5957 52.3944 31.1583C52.3944 33.6223 51.4531 36.473 50.1997 40.4623L47.333 50.049L36.9197 19.1343ZM58.2131 18.809C60.4584 22.913 61.7357 27.609 61.7357 32.617C61.7357 43.2357 55.981 52.4997 47.4264 57.481L47.4237 57.4783L56.2104 32.0703C57.8477 27.9663 58.4051 24.6917 58.4051 21.761C58.4051 20.705 58.341 19.7237 58.2131 18.809Z" fill="#FFBB01"/>
</g>
<defs>
<clipPath id="clip0">
<rect width="64" height="64" fill="white" transform="translate(0.959717 0.614319)"/>
</clipPath>
</defs>
</svg>
