<svg width="64" height="64" viewBox="0 0 64 64" fill="none" xmlns="http://www.w3.org/2000/svg">
<path d="M10 4C9.73478 4 9.48043 4.10536 9.29289 4.29289C9.10536 4.48043 9 4.73478 9 5C9 5.26522 9.10536 5.51957 9.29289 5.70711C9.48043 5.89464 9.73478 6 10 6C10.2652 6 10.5196 5.89464 10.7071 5.70711C10.8946 5.51957 11 5.26522 11 5C11 4.73478 10.8946 4.48043 10.7071 4.29289C10.5196 4.10536 10.2652 4 10 4Z" fill="#FFBB01"/>
<path d="M15 4C14.7348 4 14.4804 4.10536 14.2929 4.29289C14.1054 4.48043 14 4.73478 14 5C14 5.26522 14.1054 5.51957 14.2929 5.70711C14.4804 5.89464 14.7348 6 15 6C15.2652 6 15.5196 5.89464 15.7071 5.70711C15.8946 5.51957 16 5.26522 16 5C16 4.73478 15.8946 4.48043 15.7071 4.29289C15.5196 4.10536 15.2652 4 15 4Z" fill="#FFBB01"/>
<path d="M20 4C19.7348 4 19.4804 4.10536 19.2929 4.29289C19.1054 4.48043 19 4.73478 19 5C19 5.26522 19.1054 5.51957 19.2929 5.70711C19.4804 5.89464 19.7348 6 20 6C20.2652 6 20.5196 5.89464 20.7071 5.70711C20.8946 5.51957 21 5.26522 21 5C21 4.73478 20.8946 4.48043 20.7071 4.29289C20.5196 4.10536 20.2652 4 20 4Z" fill="#FFBB01"/>
<path d="M63 20H60V1C60 0.734784 59.8946 0.48043 59.7071 0.292893C59.5196 0.105357 59.2652 0 59 0L5 0C4.73478 0 4.48043 0.105357 4.29289 0.292893C4.10536 0.48043 4 0.734784 4 1V20H1C0.734784 20 0.48043 20.1054 0.292893 20.2929C0.105357 20.4804 0 20.7348 0 21L0 63C0 63.2652 0.105357 63.5196 0.292893 63.7071C0.48043 63.8946 0.734784 64 1 64H29C29.2652 64 29.5196 63.8946 29.7071 63.7071C29.8946 63.5196 30 63.2652 30 63V53H34V63C34 63.2652 34.1054 63.5196 34.2929 63.7071C34.4804 63.8946 34.7348 64 35 64H63C63.2652 64 63.5196 63.8946 63.7071 63.7071C63.8946 63.5196 64 63.2652 64 63V21C64 20.7348 63.8946 20.4804 63.7071 20.2929C63.5196 20.1054 63.2652 20 63 20ZM6 2H58V8H6V2ZM28 62H2V22H28V62ZM30 51V21C30 20.7348 29.8946 20.4804 29.7071 20.2929C29.5196 20.1054 29.2652 20 29 20H6V10H58V20H35C34.7348 20 34.4804 20.1054 34.2929 20.2929C34.1054 20.4804 34 20.7348 34 21V51H30ZM62 62H36V22H62V62Z" fill="#FFBB01"/>
<path d="M24 25H6C5.73478 25 5.48043 25.1054 5.29289 25.2929C5.10536 25.4804 5 25.7348 5 26V42C5 42.2652 5.10536 42.5196 5.29289 42.7071C5.48043 42.8946 5.73478 43 6 43H24C24.2652 43 24.5196 42.8946 24.7071 42.7071C24.8946 42.5196 25 42.2652 25 42V26C25 25.7348 24.8946 25.4804 24.7071 25.2929C24.5196 25.1054 24.2652 25 24 25ZM23 41H7V27H23V41Z" fill="#FFBB01"/>
<path d="M12.94 38.35L13.44 37H16.56L17.06 38.35C17.1528 38.5993 17.3409 38.8015 17.5828 38.9121C17.8247 39.0228 18.1007 39.0328 18.35 38.94C18.5993 38.8471 18.8015 38.6591 18.9122 38.4172C19.0228 38.1752 19.0328 37.8993 18.94 37.65L15.94 29.65C15.8699 29.4569 15.7421 29.2901 15.5739 29.1723C15.4058 29.0544 15.2054 28.9911 15 28.9911C14.7946 28.9911 14.5942 29.0544 14.426 29.1723C14.2579 29.2901 14.1301 29.4569 14.06 29.65L11.06 37.65C10.9672 37.8993 10.9772 38.1752 11.0878 38.4172C11.1985 38.6591 11.4007 38.8471 11.65 38.94C11.8993 39.0328 12.1753 39.0228 12.4172 38.9121C12.6591 38.8015 12.8472 38.5993 12.94 38.35ZM15 32.85L15.81 35H14.19L15 32.85Z" fill="#FFBB01"/>
<path d="M58 43C58.2652 43 58.5196 42.8946 58.7071 42.7071C58.8946 42.5196 59 42.2652 59 42V26C59 25.7348 58.8946 25.4804 58.7071 25.2929C58.5196 25.1054 58.2652 25 58 25H40C39.7348 25 39.4804 25.1054 39.2929 25.2929C39.1054 25.4804 39 25.7348 39 26V42C39 42.2652 39.1054 42.5196 39.2929 42.7071C39.4804 42.8946 39.7348 43 40 43H58ZM41 27H57V41H41V27Z" fill="#FFBB01"/>
<path d="M51.6 33.47C51.856 33.0146 51.9886 32.5003 51.9848 31.9779C51.9809 31.4555 51.8407 30.9432 51.5781 30.4916C51.3154 30.04 50.9394 29.6649 50.4872 29.4033C50.035 29.1416 49.5224 29.0026 49 29H46C45.7348 29 45.4804 29.1054 45.2929 29.2929C45.1054 29.4804 45 29.7348 45 30V38C45 38.2652 45.1054 38.5196 45.2929 38.7071C45.4804 38.8946 45.7348 39 46 39H50C50.6481 38.9974 51.278 38.7849 51.7953 38.3944C52.3126 38.0039 52.6895 37.4564 52.8697 36.8338C53.0498 36.2112 53.0235 35.547 52.7946 34.9406C52.5657 34.3342 52.1466 33.8183 51.6 33.47ZM47 31H49C49.2652 31 49.5196 31.1054 49.7071 31.2929C49.8946 31.4804 50 31.7348 50 32C50 32.2652 49.8946 32.5196 49.7071 32.7071C49.5196 32.8946 49.2652 33 49 33H47V31ZM50 37H47V35H50C50.2652 35 50.5196 35.1054 50.7071 35.2929C50.8946 35.4804 51 35.7348 51 36C51 36.2652 50.8946 36.5196 50.7071 36.7071C50.5196 36.8946 50.2652 37 50 37Z" fill="#FFBB01"/>
<path d="M6 46C5.73478 46 5.48043 46.1054 5.29289 46.2929C5.10536 46.4804 5 46.7348 5 47C5 47.2652 5.10536 47.5196 5.29289 47.7071C5.48043 47.8946 5.73478 48 6 48C6.26522 48 6.51957 47.8946 6.70711 47.7071C6.89464 47.5196 7 47.2652 7 47C7 46.7348 6.89464 46.4804 6.70711 46.2929C6.51957 46.1054 6.26522 46 6 46Z" fill="#FFBB01"/>
<path d="M24 46H10C9.73478 46 9.48043 46.1054 9.29289 46.2929C9.10536 46.4804 9 46.7348 9 47C9 47.2652 9.10536 47.5196 9.29289 47.7071C9.48043 47.8946 9.73478 48 10 48H24C24.2652 48 24.5196 47.8946 24.7071 47.7071C24.8946 47.5196 25 47.2652 25 47C25 46.7348 24.8946 46.4804 24.7071 46.2929C24.5196 46.1054 24.2652 46 24 46Z" fill="#FFBB01"/>
<path d="M6 51C5.73478 51 5.48043 51.1054 5.29289 51.2929C5.10536 51.4804 5 51.7348 5 52C5 52.2652 5.10536 52.5196 5.29289 52.7071C5.48043 52.8946 5.73478 53 6 53C6.26522 53 6.51957 52.8946 6.70711 52.7071C6.89464 52.5196 7 52.2652 7 52C7 51.7348 6.89464 51.4804 6.70711 51.2929C6.51957 51.1054 6.26522 51 6 51Z" fill="#FFBB01"/>
<path d="M24 51H10C9.73478 51 9.48043 51.1054 9.29289 51.2929C9.10536 51.4804 9 51.7348 9 52C9 52.2652 9.10536 52.5196 9.29289 52.7071C9.48043 52.8946 9.73478 53 10 53H24C24.2652 53 24.5196 52.8946 24.7071 52.7071C24.8946 52.5196 25 52.2652 25 52C25 51.7348 24.8946 51.4804 24.7071 51.2929C24.5196 51.1054 24.2652 51 24 51Z" fill="#FFBB01"/>
<path d="M6 56C5.73478 56 5.48043 56.1054 5.29289 56.2929C5.10536 56.4804 5 56.7348 5 57C5 57.2652 5.10536 57.5196 5.29289 57.7071C5.48043 57.8946 5.73478 58 6 58C6.26522 58 6.51957 57.8946 6.70711 57.7071C6.89464 57.5196 7 57.2652 7 57C7 56.7348 6.89464 56.4804 6.70711 56.2929C6.51957 56.1054 6.26522 56 6 56Z" fill="#FFBB01"/>
<path d="M24 56H10C9.73478 56 9.48043 56.1054 9.29289 56.2929C9.10536 56.4804 9 56.7348 9 57C9 57.2652 9.10536 57.5196 9.29289 57.7071C9.48043 57.8946 9.73478 58 10 58H24C24.2652 58 24.5196 57.8946 24.7071 57.7071C24.8946 57.5196 25 57.2652 25 57C25 56.7348 24.8946 56.4804 24.7071 56.2929C24.5196 56.1054 24.2652 56 24 56Z" fill="#FFBB01"/>
<path d="M40 46C39.7348 46 39.4804 46.1054 39.2929 46.2929C39.1054 46.4804 39 46.7348 39 47C39 47.2652 39.1054 47.5196 39.2929 47.7071C39.4804 47.8946 39.7348 48 40 48C40.2652 48 40.5196 47.8946 40.7071 47.7071C40.8946 47.5196 41 47.2652 41 47C41 46.7348 40.8946 46.4804 40.7071 46.2929C40.5196 46.1054 40.2652 46 40 46Z" fill="#FFBB01"/>
<path d="M44 46C43.7348 46 43.4804 46.1054 43.2929 46.2929C43.1054 46.4804 43 46.7348 43 47C43 47.2652 43.1054 47.5196 43.2929 47.7071C43.4804 47.8946 43.7348 48 44 48H58C58.2652 48 58.5196 47.8946 58.7071 47.7071C58.8946 47.5196 59 47.2652 59 47C59 46.7348 58.8946 46.4804 58.7071 46.2929C58.5196 46.1054 58.2652 46 58 46H44Z" fill="#FFBB01"/>
<path d="M40 51C39.7348 51 39.4804 51.1054 39.2929 51.2929C39.1054 51.4804 39 51.7348 39 52C39 52.2652 39.1054 52.5196 39.2929 52.7071C39.4804 52.8946 39.7348 53 40 53C40.2652 53 40.5196 52.8946 40.7071 52.7071C40.8946 52.5196 41 52.2652 41 52C41 51.7348 40.8946 51.4804 40.7071 51.2929C40.5196 51.1054 40.2652 51 40 51Z" fill="#FFBB01"/>
<path d="M58 51H44C43.7348 51 43.4804 51.1054 43.2929 51.2929C43.1054 51.4804 43 51.7348 43 52C43 52.2652 43.1054 52.5196 43.2929 52.7071C43.4804 52.8946 43.7348 53 44 53H58C58.2652 53 58.5196 52.8946 58.7071 52.7071C58.8946 52.5196 59 52.2652 59 52C59 51.7348 58.8946 51.4804 58.7071 51.2929C58.5196 51.1054 58.2652 51 58 51Z" fill="#FFBB01"/>
<path d="M40 56C39.7348 56 39.4804 56.1054 39.2929 56.2929C39.1054 56.4804 39 56.7348 39 57C39 57.2652 39.1054 57.5196 39.2929 57.7071C39.4804 57.8946 39.7348 58 40 58C40.2652 58 40.5196 57.8946 40.7071 57.7071C40.8946 57.5196 41 57.2652 41 57C41 56.7348 40.8946 56.4804 40.7071 56.2929C40.5196 56.1054 40.2652 56 40 56Z" fill="#FFBB01"/>
<path d="M58 56H44C43.7348 56 43.4804 56.1054 43.2929 56.2929C43.1054 56.4804 43 56.7348 43 57C43 57.2652 43.1054 57.5196 43.2929 57.7071C43.4804 57.8946 43.7348 58 44 58H58C58.2652 58 58.5196 57.8946 58.7071 57.7071C58.8946 57.5196 59 57.2652 59 57C59 56.7348 58.8946 56.4804 58.7071 56.2929C58.5196 56.1054 58.2652 56 58 56Z" fill="#FFBB01"/>
</svg>
