<svg width="64" height="64" viewBox="0 0 64 64" fill="none" xmlns="http://www.w3.org/2000/svg">
<path d="M61 54H60V18C60 16.9391 59.5786 15.9217 58.8284 15.1716C58.0783 14.4214 57.0609 14 56 14H51V1C51 0.734784 50.8946 0.48043 50.7071 0.292893C50.5196 0.105357 50.2652 0 50 0L14 0C13.7348 0 13.4804 0.105357 13.2929 0.292893C13.1054 0.48043 13 0.734784 13 1V14H8C6.93913 14 5.92172 14.4214 5.17157 15.1716C4.42143 15.9217 4 16.9391 4 18V54H3C2.20435 54 1.44129 54.3161 0.87868 54.8787C0.31607 55.4413 0 56.2043 0 57L0 59C0 60.3261 0.526784 61.5979 1.46447 62.5355C2.40215 63.4732 3.67392 64 5 64H59C60.3261 64 61.5979 63.4732 62.5355 62.5355C63.4732 61.5979 64 60.3261 64 59V57C64 56.2043 63.6839 55.4413 63.1213 54.8787C62.5587 54.3161 61.7957 54 61 54ZM10 50V20H13V50H10ZM15 8H49V50H15V8ZM51 20H54V50H51V20ZM15 2H49V6H15V2ZM6 18C6 17.4696 6.21071 16.9609 6.58579 16.5858C6.96086 16.2107 7.46957 16 8 16H13V18H9C8.73478 18 8.48043 18.1054 8.29289 18.2929C8.10536 18.4804 8 18.7348 8 19V51C8 51.2652 8.10536 51.5196 8.29289 51.7071C8.48043 51.8946 8.73478 52 9 52H55C55.2652 52 55.5196 51.8946 55.7071 51.7071C55.8946 51.5196 56 51.2652 56 51V19C56 18.7348 55.8946 18.4804 55.7071 18.2929C55.5196 18.1054 55.2652 18 55 18H51V16H56C56.5304 16 57.0391 16.2107 57.4142 16.5858C57.7893 16.9609 58 17.4696 58 18V54H6V18ZM40.13 56L39.46 57H24.54L23.87 56H40.13ZM62 59C62 59.7957 61.6839 60.5587 61.1213 61.1213C60.5587 61.6839 59.7957 62 59 62H5C4.20435 62 3.44129 61.6839 2.87868 61.1213C2.31607 60.5587 2 59.7957 2 59V57C2 56.7348 2.10536 56.4804 2.29289 56.2929C2.48043 56.1054 2.73478 56 3 56H21.46L23.17 58.55C23.59 59.19 22.76 59 40 59C40.69 59 40.74 58.7 42.54 56H61C61.2652 56 61.5196 56.1054 61.7071 56.2929C61.8946 56.4804 62 56.7348 62 57V59Z" fill="#FFBB01"/>
<path d="M18 3.00052C17.7348 3.00052 17.4804 3.10591 17.2929 3.2935C17.1054 3.48109 17 3.73552 17 4.00082C17 4.26612 17.1054 4.52055 17.2929 4.70814C17.4804 4.89574 17.7348 5.00112 18 5.00112C18.2652 5.00112 18.5196 4.89574 18.7071 4.70814C18.8946 4.52055 19 4.26612 19 4.00082C19 3.73552 18.8946 3.48109 18.7071 3.2935C18.5196 3.10591 18.2652 3.00052 18 3.00052Z" fill="#FFBB01"/>
<path d="M22 3.00052C21.7348 3.00052 21.4804 3.10591 21.2929 3.2935C21.1054 3.48109 21 3.73552 21 4.00082C21 4.26612 21.1054 4.52055 21.2929 4.70814C21.4804 4.89574 21.7348 5.00112 22 5.00112C22.2652 5.00112 22.5196 4.89574 22.7071 4.70814C22.8946 4.52055 23 4.26612 23 4.00082C23 3.73552 22.8946 3.48109 22.7071 3.2935C22.5196 3.10591 22.2652 3.00052 22 3.00052Z" fill="#FFBB01"/>
<path d="M26 3.00052C25.7348 3.00052 25.4804 3.10591 25.2929 3.2935C25.1054 3.48109 25 3.73552 25 4.00082C25 4.26612 25.1054 4.52055 25.2929 4.70814C25.4804 4.89574 25.7348 5.00112 26 5.00112C26.2652 5.00112 26.5196 4.89574 26.7071 4.70814C26.8946 4.52055 27 4.26612 27 4.00082C27 3.73552 26.8946 3.48109 26.7071 3.2935C26.5196 3.10591 26.2652 3.00052 26 3.00052Z" fill="#FFBB01"/>
<path d="M45.0001 10.0001H19C18.7348 10.0001 18.4804 10.1054 18.2929 10.293C18.1054 10.4805 18 10.7348 18 11.0001V21C18 21.2652 18.1054 21.5196 18.2929 21.7071C18.4804 21.8947 18.7348 22 19 22H45.0001C45.2653 22 45.5196 21.8947 45.7072 21.7071C45.8947 21.5196 46.0001 21.2652 46.0001 21V11.0001C46.0001 10.7348 45.8947 10.4805 45.7072 10.293C45.5196 10.1054 45.2653 10.0001 45.0001 10.0001ZM44.0001 20H20V12.0001H44.0001V20Z" fill="#FFBB01"/>
<path d="M31.9999 31.9997C32.791 31.9997 33.5644 31.7651 34.2222 31.3256C34.88 30.8861 35.3927 30.2614 35.6955 29.5305C35.9982 28.7996 36.0774 27.9954 35.9231 27.2195C35.7687 26.4436 35.3878 25.7309 34.8284 25.1715C34.2689 24.6121 33.5562 24.2311 32.7803 24.0768C32.0043 23.9225 31.2001 24.0017 30.4692 24.3044C29.7383 24.6072 29.1135 25.1198 28.674 25.7776C28.2345 26.4354 27.9999 27.2087 27.9999 27.9998C27.9999 29.0607 28.4213 30.0781 29.1715 30.8282C29.9216 31.5783 30.939 31.9997 31.9999 31.9997ZM31.9999 25.9999C32.3955 25.9999 32.7822 26.1172 33.1111 26.3369C33.44 26.5567 33.6963 26.869 33.8477 27.2345C33.9991 27.5999 34.0387 28.0021 33.9615 28.39C33.8843 28.778 33.6938 29.1343 33.4141 29.414C33.1344 29.6937 32.7781 29.8842 32.3901 29.9614C32.0021 30.0385 31.6 29.9989 31.2345 29.8475C30.8691 29.6962 30.5567 29.4398 30.337 29.1109C30.1172 28.7821 29.9999 28.3954 29.9999 27.9998C29.9999 27.4694 30.2106 26.9607 30.5857 26.5857C30.9608 26.2106 31.4695 25.9999 31.9999 25.9999Z" fill="#FFBB01"/>
<path d="M42 23.9999C41.2089 23.9999 40.4355 24.2345 39.7777 24.674C39.1199 25.1136 38.6072 25.7383 38.3045 26.4691C38.0017 27.2 37.9225 28.0043 38.0769 28.7802C38.2312 29.5561 38.6122 30.2688 39.1716 30.8282C39.731 31.3876 40.4437 31.7685 41.2196 31.9229C41.9956 32.0772 42.7998 31.998 43.5307 31.6952C44.2616 31.3925 44.8864 30.8798 45.3259 30.2221C45.7654 29.5643 46 28.7909 46 27.9998C46 26.939 45.5786 25.9216 44.8284 25.1715C44.0783 24.4214 43.0609 23.9999 42 23.9999ZM42 29.9998C41.6044 29.9998 41.2178 29.8825 40.8889 29.6627C40.56 29.443 40.3036 29.1306 40.1522 28.7652C40.0009 28.3997 39.9613 27.9976 40.0384 27.6097C40.1156 27.2217 40.3061 26.8654 40.5858 26.5857C40.8655 26.306 41.2219 26.1155 41.6098 26.0383C41.9978 25.9611 42.3999 26.0008 42.7654 26.1521C43.1308 26.3035 43.4432 26.5598 43.6629 26.8887C43.8827 27.2176 44 27.6043 44 27.9998C44 28.5302 43.7893 29.0389 43.4142 29.414C43.0391 29.7891 42.5304 29.9998 42 29.9998Z" fill="#FFBB01"/>
<path d="M22 31.9997C22.7911 31.9997 23.5645 31.7651 24.2223 31.3256C24.8801 30.8861 25.3928 30.2614 25.6955 29.5305C25.9983 28.7996 26.0775 27.9954 25.9231 27.2195C25.7688 26.4436 25.3878 25.7309 24.8284 25.1715C24.269 24.6121 23.5563 24.2311 22.7804 24.0768C22.0044 23.9225 21.2002 24.0017 20.4693 24.3044C19.7384 24.6072 19.1136 25.1198 18.6741 25.7776C18.2346 26.4354 18 27.2087 18 27.9998C18 29.0607 18.4214 30.0781 19.1716 30.8282C19.9217 31.5783 20.9391 31.9997 22 31.9997ZM22 25.9999C22.3956 25.9999 22.7822 26.1172 23.1111 26.3369C23.44 26.5567 23.6964 26.869 23.8478 27.2345C23.9991 27.5999 24.0387 28.0021 23.9616 28.39C23.8844 28.778 23.6939 29.1343 23.4142 29.414C23.1345 29.6937 22.7781 29.8842 22.3902 29.9614C22.0022 30.0385 21.6001 29.9989 21.2346 29.8475C20.8692 29.6962 20.5568 29.4398 20.3371 29.1109C20.1173 28.7821 20 28.3954 20 27.9998C20 27.4694 20.2107 26.9607 20.5858 26.5857C20.9609 26.2106 21.4696 25.9999 22 25.9999Z" fill="#FFBB01"/>
<path d="M19 36.0013H25C25.2652 36.0013 25.5196 35.8959 25.7071 35.7082C25.8946 35.5206 26 35.2661 26 35.0007C26 34.7353 25.8946 34.4808 25.7071 34.2932C25.5196 34.1055 25.2652 34.0001 25 34.0001H19C18.7348 34.0001 18.4804 34.1055 18.2929 34.2932C18.1054 34.4808 18 34.7353 18 35.0007C18 35.2661 18.1054 35.5206 18.2929 35.7082C18.4804 35.8959 18.7348 36.0013 19 36.0013Z" fill="#FFBB01"/>
<path d="M19 40.0009H25C25.2652 40.0009 25.5196 39.8955 25.7071 39.7079C25.8946 39.5202 26 39.2658 26 39.0004C26 38.7351 25.8946 38.4807 25.7071 38.293C25.5196 38.1054 25.2652 38 25 38H19C18.7348 38 18.4804 38.1054 18.2929 38.293C18.1054 38.4807 18 38.7351 18 39.0004C18 39.2658 18.1054 39.5202 18.2929 39.7079C18.4804 39.8955 18.7348 40.0009 19 40.0009Z" fill="#FFBB01"/>
<path d="M28.9999 36.0013H34.9999C35.2652 36.0013 35.5195 35.8959 35.707 35.7082C35.8946 35.5206 35.9999 35.2661 35.9999 35.0007C35.9999 34.7353 35.8946 34.4808 35.707 34.2932C35.5195 34.1055 35.2652 34.0001 34.9999 34.0001H28.9999C28.7347 34.0001 28.4803 34.1055 28.2928 34.2932C28.1052 34.4808 27.9999 34.7353 27.9999 35.0007C27.9999 35.2661 28.1052 35.5206 28.2928 35.7082C28.4803 35.8959 28.7347 36.0013 28.9999 36.0013Z" fill="#FFBB01"/>
<path d="M28.9999 40.0009H34.9999C35.2652 40.0009 35.5195 39.8955 35.707 39.7079C35.8946 39.5202 35.9999 39.2658 35.9999 39.0004C35.9999 38.7351 35.8946 38.4807 35.707 38.293C35.5195 38.1054 35.2652 38 34.9999 38H28.9999C28.7347 38 28.4803 38.1054 28.2928 38.293C28.1052 38.4807 27.9999 38.7351 27.9999 39.0004C27.9999 39.2658 28.1052 39.5202 28.2928 39.7079C28.4803 39.8955 28.7347 40.0009 28.9999 40.0009Z" fill="#FFBB01"/>
<path d="M45 34.0001H39C38.7348 34.0001 38.4804 34.1055 38.2929 34.2932C38.1054 34.4808 38 34.7353 38 35.0007C38 35.2661 38.1054 35.5206 38.2929 35.7082C38.4804 35.8959 38.7348 36.0013 39 36.0013H45C45.2652 36.0013 45.5196 35.8959 45.7071 35.7082C45.8946 35.5206 46 35.2661 46 35.0007C46 34.7353 45.8946 34.4808 45.7071 34.2932C45.5196 34.1055 45.2652 34.0001 45 34.0001Z" fill="#FFBB01"/>
<path d="M45 38H39C38.7348 38 38.4804 38.1054 38.2929 38.293C38.1054 38.4807 38 38.7351 38 39.0004C38 39.2658 38.1054 39.5202 38.2929 39.7079C38.4804 39.8955 38.7348 40.0009 39 40.0009H45C45.2652 40.0009 45.5196 39.8955 45.7071 39.7079C45.8946 39.5202 46 39.2658 46 39.0004C46 38.7351 45.8946 38.4807 45.7071 38.293C45.5196 38.1054 45.2652 38 45 38Z" fill="#FFBB01"/>
<path d="M45.0001 42.0001H19C18.7348 42.0001 18.4804 42.1055 18.2929 42.293C18.1054 42.4805 18 42.7349 18 43.0001V47C18 47.2652 18.1054 47.5196 18.2929 47.7071C18.4804 47.8946 18.7348 48 19 48H45.0001C45.2653 48 45.5196 47.8946 45.7072 47.7071C45.8947 47.5196 46.0001 47.2652 46.0001 47V43.0001C46.0001 42.7349 45.8947 42.4805 45.7072 42.293C45.5196 42.1055 45.2653 42.0001 45.0001 42.0001ZM44.0001 46H20V44.0001H44.0001V46Z" fill="#FFBB01"/>
</svg>
