<svg width="62" height="64" viewBox="0 0 62 64" fill="none" xmlns="http://www.w3.org/2000/svg">
<path d="M56.7041 2H4.80538C4.04069 2 3.30732 2.31607 2.76661 2.87868C2.22589 3.44129 1.92212 4.20435 1.92212 5V59C1.92212 59.7957 2.22589 60.5587 2.76661 61.1213C3.30732 61.6839 4.04069 62 4.80538 62H56.7041C57.4688 62 58.2022 61.6839 58.7429 61.1213C59.2836 60.5587 59.5874 59.7957 59.5874 59V5C59.5874 4.20435 59.2836 3.44129 58.7429 2.87868C58.2022 2.31607 57.4688 2 56.7041 2ZM57.6652 59C57.6652 59.2652 57.564 59.5196 57.3837 59.7071C57.2035 59.8946 56.959 60 56.7041 60H4.80538C4.55049 60 4.30603 59.8946 4.12579 59.7071C3.94555 59.5196 3.8443 59.2652 3.8443 59V12H57.6652V59ZM3.8443 10V5C3.8443 4.73478 3.94555 4.48043 4.12579 4.29289C4.30603 4.10536 4.55049 4 4.80538 4H56.7041C56.959 4 57.2035 4.10536 57.3837 4.29289C57.564 4.48043 57.6652 4.73478 57.6652 5V10H3.8443Z" fill="#FFBB01"/>
<path d="M6.04507 6.28997C5.86804 6.48066 5.76825 6.73486 5.76636 6.99997C5.76788 7.13065 5.794 7.25975 5.84324 7.37997C5.88735 7.50357 5.95614 7.61604 6.04507 7.70997C6.22605 7.89827 6.47151 8.00406 6.72745 8.00406C6.98339 8.00406 7.22884 7.89827 7.40982 7.70997C7.5908 7.52167 7.69247 7.26627 7.69247 6.99997C7.69247 6.73367 7.5908 6.47828 7.40982 6.28997C7.22396 6.11154 6.98034 6.01246 6.72745 6.01246C6.47455 6.01246 6.23093 6.11154 6.04507 6.28997Z" fill="#FFBB01"/>
<path d="M9.88955 6.28997C9.71409 6.48172 9.61457 6.73525 9.61084 6.99997C9.61248 7.06704 9.6189 7.13389 9.63006 7.19997C9.64053 7.26264 9.65996 7.32331 9.68773 7.37998C9.70873 7.44371 9.73782 7.50425 9.77422 7.55998C9.8097 7.61237 9.84822 7.66246 9.88955 7.70998C10.0717 7.89589 10.3167 8.00003 10.5719 8.00003C10.8271 8.00003 11.0721 7.89589 11.2543 7.70998L11.3696 7.55998C11.406 7.50425 11.4351 7.44371 11.4561 7.37998C11.4839 7.32331 11.5033 7.26264 11.5138 7.19997C11.5249 7.13389 11.5314 7.06704 11.533 6.99997C11.5341 6.80135 11.4784 6.60688 11.3728 6.44136C11.2673 6.27584 11.1168 6.14677 10.9405 6.0706C10.7642 5.99443 10.5701 5.97462 10.3829 6.01369C10.1957 6.05276 10.024 6.14894 9.88955 6.28997Z" fill="#FFBB01"/>
<path d="M13.7338 6.28997C13.5552 6.47954 13.4551 6.73446 13.4551 6.99997C13.4551 7.26548 13.5552 7.52041 13.7338 7.70997C13.8235 7.80321 13.9298 7.87717 14.0469 7.92763C14.164 7.97809 14.2895 8.00406 14.4162 8.00406C14.5429 8.00406 14.6684 7.97809 14.7855 7.92763C14.9026 7.87717 15.009 7.80321 15.0986 7.70997C15.1882 7.61673 15.2593 7.50604 15.3078 7.38422C15.3563 7.2624 15.3812 7.13183 15.3812 6.99997C15.3812 6.86811 15.3563 6.73754 15.3078 6.61572C15.2593 6.4939 15.1882 6.38321 15.0986 6.28997C14.9127 6.11154 14.6691 6.01246 14.4162 6.01246C14.1633 6.01246 13.9197 6.11154 13.7338 6.28997Z" fill="#FFBB01"/>
<path d="M55.7429 14H5.76636V28H55.7429V14ZM53.8208 26H7.68853V16H53.8208V26Z" fill="#FFBB01"/>
<path d="M23.0659 30H5.76636V58H23.0659V30ZM21.1438 56H7.68853V32H21.1438V56Z" fill="#FFBB01"/>
<path d="M24.9883 43H55.7431V30H24.9883V43ZM26.9105 32H53.8209V41H26.9105V32Z" fill="#FFBB01"/>
<path d="M24.9883 58H55.7431V45H24.9883V58ZM26.9105 47H53.8209V56H26.9105V47Z" fill="#FFBB01"/>
</svg>
