<svg width="62" height="64" viewBox="0 0 62 64" fill="none" xmlns="http://www.w3.org/2000/svg">
<g clip-path="url(#clip0)">
<path d="M60.7354 32C60.7354 31.1416 60.4379 30.3088 59.8935 29.6538C59.8544 29.5872 59.8072 29.5245 59.7521 29.4673L33.417 2.06593L33.417 2.06592L33.4149 2.06379C32.7609 1.38732 31.8676 1 30.9278 1C29.988 1 29.0947 1.38732 28.4406 2.06379L28.4389 2.06558L2.07874 29.4669L2.07874 29.4669L2.07635 29.4694C1.42764 30.1484 1.07007 31.0588 1.07007 32C1.07007 32.9412 1.42764 33.8516 2.07635 34.5306L2.07635 34.5306L2.07841 34.5327L28.4135 61.9341L28.4156 61.9362C29.0696 62.6127 29.9629 63 30.9027 63C31.8425 63 32.7358 62.6127 33.3899 61.9362L33.3919 61.9341L59.727 34.5327L59.7291 34.5306C60.3778 33.8516 60.7354 32.9412 60.7354 32Z" stroke="#FFBB01" stroke-width="2" stroke-linecap="round" stroke-linejoin="round"/>
<path d="M22.3873 10.092L28.2563 16.1985" stroke="#FFBB01" stroke-width="2" stroke-linecap="round" stroke-linejoin="round"/>
<path d="M30.9154 22.8792V41.1468" stroke="#FFBB01" stroke-width="2" stroke-linecap="round" stroke-linejoin="round"/>
<path d="M30.9154 23.8793C33.5825 23.8793 35.6775 21.6413 35.6775 18.9649C35.6775 16.2885 33.5825 14.0504 30.9154 14.0504C28.2483 14.0504 26.1532 16.2885 26.1532 18.9649C26.1532 21.6413 28.2483 23.8793 30.9154 23.8793Z" stroke="#FFBB01" stroke-width="2" stroke-linecap="round" stroke-linejoin="round"/>
<path d="M43.4554 36.9276C46.1225 36.9276 48.2175 34.6895 48.2175 32.0131C48.2175 29.3367 46.1225 27.0986 43.4554 27.0986C40.7883 27.0986 38.6932 29.3367 38.6932 32.0131C38.6932 34.6895 40.7883 36.9276 43.4554 36.9276Z" stroke="#FFBB01" stroke-width="2" stroke-linecap="round" stroke-linejoin="round"/>
<path d="M30.9154 49.9758C33.5825 49.9758 35.6775 47.7377 35.6775 45.0613C35.6775 42.3849 33.5825 40.1468 30.9154 40.1468C28.2483 40.1468 26.1532 42.3849 26.1532 45.0613C26.1532 47.7377 28.2483 49.9758 30.9154 49.9758Z" stroke="#FFBB01" stroke-width="2" stroke-linecap="round" stroke-linejoin="round"/>
<path d="M33.549 21.7571L40.7723 29.2729" stroke="#FFBB01" stroke-width="2" stroke-linecap="round" stroke-linejoin="round"/>
</g>
<defs>
<clipPath id="clip0">
<rect width="61.5096" height="64" fill="white" transform="translate(0.147949)"/>
</clipPath>
</defs>
</svg>
