<svg width="63" height="64" viewBox="0 0 63 64" fill="none" xmlns="http://www.w3.org/2000/svg">
<g clip-path="url(#clip0)">
<path d="M61.6317 0H1.85933C1.60365 0 1.35843 0.105357 1.17763 0.292893C0.996835 0.48043 0.895264 0.734784 0.895264 1L0.895264 52C0.895264 52.2652 0.996835 52.5196 1.17763 52.7071C1.35843 52.8946 1.60365 53 1.85933 53H8.91632C10.3913 57.52 14.855 64 16.4553 64C49.2337 64 47.1128 64 47.3923 63.93C47.9515 63.69 52.4826 59.42 54.5747 53H61.6317C61.8873 53 62.1326 52.8946 62.3134 52.7071C62.4942 52.5196 62.5957 52.2652 62.5957 52V1C62.5957 0.734784 62.4942 0.48043 62.3134 0.292893C62.1326 0.105357 61.8873 0 61.6317 0V0ZM2.8234 2H60.6676V8H2.8234V2ZM46.7175 28.05L43.9795 30.89C40.8735 27.9766 36.892 26.2667 32.7096 26.05V22C37.9212 22.2375 42.8835 24.3807 46.7175 28.05ZM53.9191 44H50.0628C49.8539 39.6617 48.2054 35.5318 45.3967 32.31L48.1347 29.47C51.6546 33.4541 53.7034 38.6006 53.9191 44ZM48.1347 60.53L45.3485 57.7C48.1734 54.4804 49.8388 50.3471 50.0628 46H53.9191C53.696 51.3977 51.6482 56.5417 48.1347 60.53ZM30.7814 26.05C26.598 26.2618 22.6149 27.9724 19.5114 30.89L16.7735 28.05C20.6075 24.3807 25.5698 22.2375 30.7814 22V26.05ZM15.4045 29.47L18.1425 32.3C15.3351 35.5266 13.687 39.6592 13.4764 44H9.57189C9.80085 38.5942 11.8671 33.4469 15.4045 29.47ZM15.4045 60.53C11.8735 56.5489 9.80825 51.4041 9.57189 46H13.4282C13.6388 50.3408 15.2869 54.4734 18.0943 57.7L15.4045 60.53ZM16.8217 62C16.7253 61.91 16.5228 62.21 20.1574 58.44C21.7288 56.81 15.337 54.62 15.337 45C15.337 40.4913 17.0637 36.1673 20.1373 32.9792C23.2109 29.7911 27.3795 28 31.7262 28C36.0729 28 40.2416 29.7911 43.3151 32.9792C46.3887 36.1673 48.1154 40.4913 48.1154 45C48.1154 53.9 42.7166 56.42 43.0733 58C43.0733 58.16 43.0733 58.08 43.2276 58.34C43.2276 58.39 43.2276 58.44 43.3143 58.48C46.9489 62.25 46.7464 61.95 46.65 62.04L16.8217 62ZM55.1338 51C56.3883 45.7065 55.9404 40.1328 53.8583 35.1278C51.7763 30.1228 48.1742 25.9608 43.6008 23.2757C39.0273 20.5906 33.7332 19.5296 28.5246 20.2543C23.316 20.979 18.4785 23.4497 14.7489 27.29C9.57189 32.08 6.1398 41.71 8.35716 51H2.8234V10H60.6676V51H55.1338Z" fill="#FFBB01"/>
<path d="M6.67965 4C6.42396 4 6.17874 4.10536 5.99795 4.29289C5.81715 4.48043 5.71558 4.73478 5.71558 5C5.71558 5.26522 5.81715 5.51957 5.99795 5.70711C6.17874 5.89464 6.42396 6 6.67965 6C6.93533 6 7.18055 5.89464 7.36135 5.70711C7.54214 5.51957 7.64372 5.26522 7.64372 5C7.64372 4.73478 7.54214 4.48043 7.36135 4.29289C7.18055 4.10536 6.93533 4 6.67965 4Z" fill="#FFBB01"/>
<path d="M11.5 4C11.2443 4 10.9991 4.10536 10.8183 4.29289C10.6375 4.48043 10.5359 4.73478 10.5359 5C10.5359 5.26522 10.6375 5.51957 10.8183 5.70711C10.9991 5.89464 11.2443 6 11.5 6C11.7556 6 12.0009 5.89464 12.1817 5.70711C12.3625 5.51957 12.464 5.26522 12.464 5C12.464 4.73478 12.3625 4.48043 12.1817 4.29289C12.0009 4.10536 11.7556 4 11.5 4Z" fill="#FFBB01"/>
<path d="M16.3203 4C16.0646 4 15.8194 4.10536 15.6386 4.29289C15.4578 4.48043 15.3562 4.73478 15.3562 5C15.3562 5.26522 15.4578 5.51957 15.6386 5.70711C15.8194 5.89464 16.0646 6 16.3203 6C16.576 6 16.8212 5.89464 17.002 5.70711C17.1828 5.51957 17.2843 5.26522 17.2843 5C17.2843 4.73478 17.1828 4.48043 17.002 4.29289C16.8212 4.10536 16.576 4 16.3203 4Z" fill="#FFBB01"/>
<path d="M31.7455 48C32.5125 48 33.2482 47.6839 33.7906 47.1213C34.333 46.5587 34.6377 45.7956 34.6377 45C34.6377 41.93 32.7674 33.16 32.7095 32.78C32.7095 32.5148 32.608 32.2604 32.4272 32.0729C32.2464 31.8854 32.0012 31.78 31.7455 31.78C31.4898 31.78 31.2446 31.8854 31.0638 32.0729C30.883 32.2604 30.7814 32.5148 30.7814 32.78C30.7043 33.16 28.8533 41.93 28.8533 45C28.8533 45.7956 29.158 46.5587 29.7004 47.1213C30.2428 47.6839 30.9784 48 31.7455 48ZM31.7455 38C32.2267 40.3066 32.5488 42.6459 32.7095 45C32.7095 45.2652 32.608 45.5196 32.4272 45.7071C32.2464 45.8946 32.0012 46 31.7455 46C31.4898 46 31.2446 45.8946 31.0638 45.7071C30.883 45.5196 30.7814 45.2652 30.7814 45C30.9421 42.6459 31.2643 40.3066 31.7455 38Z" fill="#FFBB01"/>
<path d="M37.5299 53H25.961C25.7053 53 25.4601 53.1054 25.2793 53.2929C25.0985 53.4804 24.9969 53.7348 24.9969 54C24.9969 54.2652 25.0985 54.5196 25.2793 54.7071C25.4601 54.8946 25.7053 55 25.961 55H37.5299C37.7855 55 38.0308 54.8946 38.2116 54.7071C38.3924 54.5196 38.4939 54.2652 38.4939 54C38.4939 53.7348 38.3924 53.4804 38.2116 53.2929C38.0308 53.1054 37.7855 53 37.5299 53Z" fill="#FFBB01"/>
</g>
<defs>
<clipPath id="clip0">
<rect width="61.7005" height="64" fill="white" transform="translate(0.895264)"/>
</clipPath>
</defs>
</svg>
