<svg width="64" height="64" viewBox="0 0 64 64" fill="none" xmlns="http://www.w3.org/2000/svg">
<path d="M17.3396 56.5334H14.9333V58.6667H24.5333V56.5334H19.5672L22.1271 48H24.5333V45.8667H4.26667C3.08854 45.8667 2.13333 44.9115 2.13333 43.7333V41.6H24.5333V39.4667H2.13333V9.60001C2.13333 8.42189 3.08854 7.46668 4.26667 7.46668H49.0667C50.2448 7.46668 51.2 8.42189 51.2 9.60001V18.1333H53.3333V9.60001C53.3333 7.24376 51.4229 5.33334 49.0667 5.33334H4.26667C1.91042 5.33334 0 7.24376 0 9.60001V43.7333C0 46.0896 1.91042 48 4.26667 48H19.8995L17.3396 56.5334Z" fill="#FFBB01"/>
<path d="M46.9334 16V18.1333H49.0667V14.9333C49.0667 14.3443 48.5891 13.8667 48.0001 13.8667H5.33339C4.74433 13.8667 4.26672 14.3443 4.26672 14.9333V27.7333C4.26672 28.3224 4.74433 28.8 5.33339 28.8H24.5334V26.6667H6.40006V16H46.9334Z" fill="#FFBB01"/>
<path d="M18.1334 37.3333V32C18.1334 31.4109 17.6558 30.9333 17.0667 30.9333H5.33339C4.74433 30.9333 4.26672 31.4109 4.26672 32V37.3333H6.40006V33.0667H16.0001V37.3333H18.1334Z" fill="#FFBB01"/>
<path d="M20.2667 32V37.3333H22.4001V33.0667H24.5334V30.9333H21.3334C20.7443 30.9333 20.2667 31.4109 20.2667 32Z" fill="#FFBB01"/>
<path d="M4.26672 9.60001H6.40006V11.7333H4.26672V9.60001Z" fill="#FFBB01"/>
<path d="M8.53333 9.60001H10.6667V11.7333H8.53333V9.60001Z" fill="#FFBB01"/>
<path d="M12.8 9.60001H14.9334V11.7333H12.8V9.60001Z" fill="#FFBB01"/>
<path d="M56.5333 28.8V23.4667C56.5333 21.6995 55.1005 20.2667 53.3333 20.2667H29.8666C28.0994 20.2667 26.6666 21.6995 26.6666 23.4667V55.4667C26.6666 57.2339 28.0994 58.6667 29.8666 58.6667H44.8V56.5333H29.8666C29.2776 56.5333 28.8 56.0557 28.8 55.4667V54.4H44.8V52.2667H28.8V23.4667C28.8 22.8776 29.2776 22.4 29.8666 22.4H53.3333C53.9224 22.4 54.4 22.8776 54.4 23.4667V28.8H56.5333Z" fill="#FFBB01"/>
<path d="M32 24.5333H35.2V26.6667H32V24.5333Z" fill="#FFBB01"/>
<path d="M37.3334 24.5333H40.5334V26.6667H37.3334V24.5333Z" fill="#FFBB01"/>
<path d="M42.6666 24.5333H45.8666V26.6667H42.6666V24.5333Z" fill="#FFBB01"/>
<path d="M48 24.5333H51.2V26.6667H48V24.5333Z" fill="#FFBB01"/>
<path d="M33.0667 30.9333H46.9334V28.8H32C31.411 28.8 30.9333 29.2776 30.9333 29.8667V37.3333C30.9333 37.9224 31.411 38.4 32 38.4H44.8V36.2667H33.0667V30.9333Z" fill="#FFBB01"/>
<path d="M44.8 42.6667V40.5333H32C31.411 40.5333 30.9333 41.0109 30.9333 41.6V49.0667C30.9333 49.6557 31.411 50.1333 32 50.1333H44.8V48H33.0667V42.6667H44.8Z" fill="#FFBB01"/>
<path d="M60.8 30.9333H50.1333C48.3662 30.9333 46.9333 32.3661 46.9333 34.1333V55.4667C46.9333 57.2339 48.3662 58.6667 50.1333 58.6667H60.8C62.5672 58.6667 64 57.2339 64 55.4667V34.1333C64 32.3661 62.5672 30.9333 60.8 30.9333ZM61.8667 55.4667C61.8667 56.0557 61.3891 56.5333 60.8 56.5333H50.1333C49.5443 56.5333 49.0667 56.0557 49.0667 55.4667V54.4H61.8667V55.4667ZM61.8667 52.2667H49.0667V34.1333C49.0667 33.5443 49.5443 33.0667 50.1333 33.0667H60.8C61.3891 33.0667 61.8667 33.5443 61.8667 34.1333V52.2667Z" fill="#FFBB01"/>
<path d="M58.6666 35.2H52.2666C51.6776 35.2 51.2 35.6776 51.2 36.2667V40.5333C51.2 41.1224 51.6776 41.6 52.2666 41.6H58.6666C59.2557 41.6 59.7333 41.1224 59.7333 40.5333V36.2667C59.7333 35.6776 59.2557 35.2 58.6666 35.2ZM57.6 39.4667H53.3333V37.3333H57.6V39.4667Z" fill="#FFBB01"/>
<path d="M58.6666 43.7333H52.2666C51.6776 43.7333 51.2 44.2109 51.2 44.8V49.0667C51.2 49.6557 51.6776 50.1333 52.2666 50.1333H58.6666C59.2557 50.1333 59.7333 49.6557 59.7333 49.0667V44.8C59.7333 44.2109 59.2557 43.7333 58.6666 43.7333ZM57.6 48H53.3333V45.8667H57.6V48Z" fill="#FFBB01"/>
</svg>
