<svg width="63" height="64" viewBox="0 0 63 64" fill="none" xmlns="http://www.w3.org/2000/svg">
<g clip-path="url(#clip0)">
<path d="M62.611 2.80687L60.5477 0.666767C59.7186 -0.193146 58.3698 -0.193146 57.5404 0.666892L48.5607 9.98089H41.6604V2.71104C41.6604 1.21622 40.488 0 39.0468 0H10.3861C8.94495 0 7.77243 1.21622 7.77243 2.71104V9.98089H6.25724C3.65191 9.98089 1.53222 12.1796 1.53222 14.882L1.53174 46.1039C1.53174 48.668 3.54291 50.7541 6.01491 50.7541H19.108L18.6506 58.6458H15.7164C14.1568 58.6458 12.7147 59.5227 11.9528 60.934C11.709 61.3855 11.8644 61.9566 12.2997 62.2093C12.7351 62.4622 13.2854 62.301 13.5292 61.8495C13.9719 61.0292 14.8101 60.5196 15.7164 60.5196H42.8536C43.7598 60.5196 44.5978 61.0292 45.0407 61.8495C45.2986 62.1952 45.6727 62.4993 46.2702 62.2093C46.7055 61.9566 46.8607 61.3855 46.6171 60.934C45.8553 59.5225 44.4131 58.6458 42.8536 58.6458H39.6929L39.2354 50.7541H52.5551C55.0271 50.7541 57.0382 48.668 57.0382 46.1039L57.0378 16.5133C57.0378 15.9958 56.6334 15.5763 56.1344 15.5763C55.6354 15.5763 55.2311 15.9958 55.2311 16.5133V43.5404H41.6607V27.6568L62.6119 5.92519C63.4392 5.06465 63.4389 3.66578 62.611 2.80687ZM40.1319 26.4665C40.0541 26.5213 39.7248 26.5779 39.7248 26.5779L38.7674 26.7358L37.2338 26.9896L37.656 24.0752C37.6708 23.9729 37.717 23.8783 37.7876 23.8052L38.1429 23.4375L55.853 5.0674L58.3682 7.67638L40.6581 26.0465C40.658 26.0465 40.2322 26.3961 40.1319 26.4665ZM6.25712 11.855H7.7723V43.5405H3.33876V14.8821C3.33876 13.2129 4.64799 11.855 6.25712 11.855ZM37.8827 58.6458H20.4605L20.9179 50.7541H23.7385V51.3687C23.7385 54.3715 26.0936 56.8145 28.9886 56.8145H29.5812C32.4762 56.8145 34.8314 54.3715 34.8314 51.3687V50.7541H37.4254L37.8827 58.6458ZM33.0247 50.7542V51.3688C33.0247 53.3384 31.48 54.9406 29.5812 54.9406H28.9886C27.0898 54.9406 25.5451 53.3384 25.5451 51.3688V50.7542H33.0247ZM55.2315 46.1039C55.2315 47.6347 54.0308 48.8801 52.555 48.8801H6.01491C4.53911 48.8802 3.3384 47.6348 3.3384 46.1039V45.4144H8.67563H40.7571H55.2313V46.1039H55.2315ZM9.57897 43.5405V2.71117C9.57897 2.24967 9.94102 1.87412 10.3859 1.87412H39.0468C39.4917 1.87412 39.8538 2.24967 39.8538 2.71117V14.629C39.8538 15.1465 40.2581 15.566 40.7571 15.566C41.2561 15.566 41.6604 15.1465 41.6604 14.629V11.855H46.754L36.2264 22.775C36.0887 22.8521 35.4602 26.9556 35.3745 27.1815H12.7764C12.2775 27.1815 11.8731 27.6011 11.8731 28.1185C11.8731 28.636 12.2775 29.0555 12.7764 29.0555H36.1452C36.2604 29.0684 39.6846 28.4716 39.8539 28.4536V43.5405H9.57897ZM61.3334 4.60103L59.6459 6.35159L57.1305 3.74249L58.8181 1.99206C58.9427 1.86275 59.1458 1.86275 59.2702 1.99206L61.3334 4.13216C61.4579 4.26121 61.4576 4.47197 61.3334 4.60103Z" fill="#FFBB01"/>
<path d="M14.0949 18.9748H23.8906C25.1157 18.9748 26.1124 17.941 26.1124 16.6702V9.32225C26.1124 8.05143 25.1157 7.01761 23.8906 7.01761H14.0949C12.8698 7.01761 11.873 8.05143 11.873 9.32225V16.6702C11.873 17.941 12.8697 18.9748 14.0949 18.9748ZM13.6797 9.32225C13.6797 9.08475 13.8659 8.8916 14.0949 8.8916H23.8906C24.1196 8.8916 24.3058 9.08475 24.3058 9.32225V16.6702C24.3058 16.9077 24.1196 17.1008 23.8906 17.1008H14.0949C13.866 17.1008 13.6797 16.9077 13.6797 16.6702V9.32225Z" fill="#FFBB01"/>
<path d="M36.9165 30.3904H30.4254C29.2003 30.3904 28.2036 31.4243 28.2036 32.6951V37.7465C28.2036 39.0173 29.2003 40.0511 30.4254 40.0511H36.9165C38.1417 40.0511 39.1384 39.0173 39.1384 37.7465V32.6951C39.1384 31.4243 38.1417 30.3904 36.9165 30.3904ZM37.3317 37.7465C37.3317 37.984 37.1454 38.1771 36.9165 38.1771H30.4254C30.1965 38.1771 30.0103 37.984 30.0103 37.7465V32.6951C30.0103 32.4576 30.1965 32.2644 30.4254 32.2644H36.9165C37.1454 32.2644 37.3317 32.4576 37.3317 32.6951V37.7465Z" fill="#FFBB01"/>
<path d="M29.1915 11.6055H37.121C37.62 11.6055 38.0243 11.186 38.0243 10.6685C38.0243 10.1511 37.62 9.73154 37.121 9.73154H29.1915C28.6927 9.73154 28.2882 10.1511 28.2882 10.6685C28.2882 11.186 28.6927 11.6055 29.1915 11.6055Z" fill="#FFBB01"/>
<path d="M29.1915 15.0641H37.121C37.62 15.0641 38.0243 14.6446 38.0243 14.1272C38.0243 13.6097 37.62 13.1902 37.121 13.1902H29.1915C28.6927 13.1902 28.2882 13.6097 28.2882 14.1272C28.2882 14.6446 28.6927 15.0641 29.1915 15.0641Z" fill="#FFBB01"/>
<path d="M12.7764 25.4718H28.2156C28.7145 25.4718 29.1189 25.0523 29.1189 24.5348C29.1189 24.0174 28.7145 23.5978 28.2156 23.5978H12.7764C12.2775 23.5978 11.873 24.0174 11.873 24.5348C11.873 25.0523 12.2775 25.4718 12.7764 25.4718Z" fill="#FFBB01"/>
<path d="M25.2091 32.8043H19.3602C18.8614 32.8043 18.4569 33.2238 18.4569 33.7413C18.4569 34.2587 18.8614 34.6783 19.3602 34.6783H25.2091C25.708 34.6783 26.1125 34.2587 26.1125 33.7413C26.1125 33.2238 25.708 32.8043 25.2091 32.8043Z" fill="#FFBB01"/>
<path d="M12.7764 34.6783H15.0917C15.5906 34.6783 15.995 34.2587 15.995 33.7413C15.995 33.2238 15.5906 32.8043 15.0917 32.8043H12.7764C12.2775 32.8043 11.873 33.2238 11.873 33.7413C11.873 34.2587 12.2775 34.6783 12.7764 34.6783Z" fill="#FFBB01"/>
<path d="M25.2091 36.263H12.7764C12.2775 36.263 11.873 36.6826 11.873 37.2C11.873 37.7175 12.2775 38.137 12.7764 38.137H25.2091C25.708 38.137 26.1124 37.7175 26.1124 37.2C26.1124 36.6826 25.708 36.263 25.2091 36.263Z" fill="#FFBB01"/>
</g>
<defs>
<clipPath id="clip0">
<rect width="61.7005" height="64" fill="white" transform="translate(0.567627)"/>
</clipPath>
</defs>
</svg>
