<svg width="62" height="64" viewBox="0 0 62 64" fill="none" xmlns="http://www.w3.org/2000/svg">
<path d="M60.8877 31.4576H37.3695C36.8016 31.4576 36.3411 31.9433 36.3411 32.5424C36.3411 33.1414 36.8016 33.6271 37.3695 33.6271H59.8594V44.4746H54.7177V36.8814C54.7177 36.2823 54.2572 35.7966 53.6893 35.7966C53.1214 35.7966 52.661 36.2823 52.661 36.8814V44.4746H24.8958V33.6271H31.0659C31.6338 33.6271 32.0942 33.1414 32.0942 32.5424C32.0942 31.9433 31.6338 31.4576 31.0659 31.4576H23.8675C23.2996 31.4576 22.8392 31.9433 22.8392 32.5424V45.5593C22.8392 46.1584 23.2996 46.6441 23.8675 46.6441H33.1225V48.8136H23.8675C23.2996 48.8136 22.8392 49.2993 22.8392 49.8983V57.4915H19.7541V56.4068C19.7541 55.8077 19.2937 55.322 18.7258 55.322H15.6408V49.8983C15.6408 49.2993 15.1803 48.8136 14.6124 48.8136C14.0445 48.8136 13.5841 49.2993 13.5841 49.8983V56.4068C13.5841 57.0058 14.0445 57.4915 14.6124 57.4915H17.6975V59.661H7.41407V57.4915H10.4991C11.067 57.4915 11.5274 57.0058 11.5274 56.4068V49.8983C11.5274 49.2993 11.067 48.8136 10.4991 48.8136C9.93119 48.8136 9.47075 49.2993 9.47075 49.8983V55.322H6.38573C5.81784 55.322 5.35739 55.8077 5.35739 56.4068V57.4915H1.24404C0.676141 57.4915 0.215698 57.9772 0.215698 58.5763C0.215698 59.1753 0.676141 59.661 1.24404 59.661H5.35739V60.7458C5.35739 61.3448 5.81784 61.8305 6.38573 61.8305H18.7258C19.2937 61.8305 19.7541 61.3448 19.7541 60.7458V59.661H22.8392V62.9153C22.8392 63.5143 23.2996 64 23.8675 64H60.8877C61.4556 64 61.916 63.5143 61.916 62.9153V49.8983C61.916 49.2993 61.4556 48.8136 60.8877 48.8136H51.6326V46.6441H60.8877C61.4556 46.6441 61.916 46.1584 61.916 45.5593V32.5424C61.916 31.9433 61.4556 31.4576 60.8877 31.4576ZM59.8594 61.8305H24.8958V50.9831H52.661V58.5763C52.661 59.1753 53.1214 59.661 53.6893 59.661C54.2572 59.661 54.7177 59.1753 54.7177 58.5763V50.9831H59.8594V61.8305ZM49.576 48.8136H35.1792V46.6441H49.576V48.8136Z" fill="#FFBB01"/>
<path d="M31.0654 35.7966C29.3617 35.7966 27.9803 37.2537 27.9803 39.0508C27.9803 40.8485 29.3617 42.3051 31.0654 42.3051C32.7691 42.3051 34.1504 40.8485 34.1504 39.0508C34.1504 37.2537 32.7691 35.7966 31.0654 35.7966ZM31.0654 40.1356C30.4975 40.1356 30.037 39.6499 30.037 39.0508C30.037 38.4518 30.4975 37.9661 31.0654 37.9661C31.6333 37.9661 32.0937 38.4518 32.0937 39.0508C32.0937 39.6499 31.6333 40.1356 31.0654 40.1356Z" fill="#FFBB01"/>
<path d="M37.2351 42.3051C37.803 42.3051 38.2635 41.8194 38.2635 41.2203V36.8813C38.2635 36.2823 37.803 35.7966 37.2351 35.7966C36.6672 35.7966 36.2068 36.2823 36.2068 36.8813V41.2203C36.2068 41.8194 36.6672 42.3051 37.2351 42.3051Z" fill="#FFBB01"/>
<path d="M42.377 41.2203V36.8813C42.377 36.2823 41.9165 35.7966 41.3487 35.7966C40.7808 35.7966 40.3203 36.2823 40.3203 36.8813V41.2203C40.3203 41.8194 40.7808 42.3051 41.3487 42.3051C41.9165 42.3051 42.377 41.8194 42.377 41.2203Z" fill="#FFBB01"/>
<path d="M46.4902 41.2203V36.8813C46.4902 36.2823 46.0297 35.7966 45.4618 35.7966C44.8939 35.7966 44.4335 36.2823 44.4335 36.8813V41.2203C44.4335 41.8194 44.8939 42.3051 45.4618 42.3051C46.0297 42.3051 46.4902 41.8194 46.4902 41.2203Z" fill="#FFBB01"/>
<path d="M50.6034 41.2203V36.8813C50.6034 36.2823 50.143 35.7966 49.5751 35.7966C49.0072 35.7966 48.5468 36.2823 48.5468 36.8813V41.2203C48.5468 41.8194 49.0072 42.3051 49.5751 42.3051C50.143 42.3051 50.6034 41.8194 50.6034 41.2203Z" fill="#FFBB01"/>
<path d="M33.122 55.3221C32.5541 55.3221 32.0937 55.8078 32.0937 56.4068C32.0937 57.0059 31.6333 57.4916 31.0654 57.4916C30.4975 57.4916 30.037 57.0059 30.037 56.4068C30.037 55.8078 30.4975 55.3221 31.0654 55.3221C31.6333 55.3221 32.0937 54.8364 32.0937 54.2373C32.0937 53.6383 31.6333 53.1526 31.0654 53.1526C29.3617 53.1526 27.9803 54.6097 27.9803 56.4068C27.9803 58.2045 29.3617 59.6611 31.0654 59.6611C32.7691 59.6611 34.1504 58.2045 34.1504 56.4068C34.1504 55.8078 33.6899 55.3221 33.122 55.3221Z" fill="#FFBB01"/>
<path d="M37.2351 53.1526C36.6672 53.1526 36.2068 53.6383 36.2068 54.2373V58.5763C36.2068 59.1754 36.6672 59.6611 37.2351 59.6611C37.803 59.6611 38.2635 59.1754 38.2635 58.5763V54.2373C38.2635 53.6383 37.803 53.1526 37.2351 53.1526Z" fill="#FFBB01"/>
<path d="M41.3487 53.1526C40.7808 53.1526 40.3203 53.6383 40.3203 54.2373V58.5763C40.3203 59.1754 40.7808 59.6611 41.3487 59.6611C41.9165 59.6611 42.377 59.1754 42.377 58.5763V54.2373C42.377 53.6383 41.9165 53.1526 41.3487 53.1526Z" fill="#FFBB01"/>
<path d="M45.4618 53.1526C44.8939 53.1526 44.4335 53.6383 44.4335 54.2373V58.5763C44.4335 59.1754 44.8939 59.6611 45.4618 59.6611C46.0297 59.6611 46.4902 59.1754 46.4902 58.5763V54.2373C46.4902 53.6383 46.0297 53.1526 45.4618 53.1526Z" fill="#FFBB01"/>
<path d="M49.5751 53.1526C49.0072 53.1526 48.5468 53.6383 48.5468 54.2373V58.5763C48.5468 59.1754 49.0072 59.6611 49.5751 59.6611C50.143 59.6611 50.6034 59.1754 50.6034 58.5763V54.2373C50.6034 53.6383 50.143 53.1526 49.5751 53.1526Z" fill="#FFBB01"/>
<path d="M8.01029 38.8449C8.14637 38.9085 8.29349 38.9413 8.44212 38.9424C8.91863 38.9349 9.32735 38.5827 9.43029 38.0922C9.53272 37.6013 9.30275 37.1007 8.87394 36.8814C4.04004 34.5446 1.40141 28.972 2.53469 23.4916C3.66747 18.0112 8.26637 14.1034 13.5838 14.1018C14.6272 14.1013 15.6656 14.2543 16.6688 14.5573C17.181 14.7136 17.7208 14.4307 17.9131 13.9069C20.501 6.82637 26.9567 2.16006 34.1506 2.1696C42.3442 2.21197 49.424 8.21832 51.2211 16.6511C51.313 17.0859 51.6474 17.4169 52.0642 17.4863C56.5521 18.2427 59.8556 22.3248 59.8591 27.1187C59.8545 27.4344 59.834 27.7496 59.7973 28.0626C59.7596 28.3539 59.836 28.6495 60.0082 28.8804C60.1809 29.1113 60.435 29.2586 60.7127 29.2882C60.9873 29.3184 61.262 29.231 61.4744 29.0451C61.6873 28.8597 61.8203 28.5917 61.8439 28.3015C61.8891 27.909 61.9132 27.5144 61.9157 27.1187C61.9368 21.5255 58.2518 16.6759 53.0719 15.4794C50.8139 6.39629 43.0527 0.0467148 34.1506 0.000104635C26.426 -0.0258487 19.4209 4.77817 16.3088 12.2363C15.4135 12.0335 14.4997 11.9312 13.5838 11.9323C7.30532 11.9392 1.87742 16.5541 0.537261 23.0245C-0.802391 29.4948 2.30623 36.0769 8.01029 38.8449Z" fill="#FFBB01"/>
<path d="M16.6684 39.7129C16.7532 39.7283 16.8406 39.7283 16.9255 39.7129C18.0979 39.3983 19.2227 38.9126 20.2676 38.2701C20.5041 38.125 20.6758 37.8867 20.7451 37.6081C20.8144 37.3289 20.7757 37.0328 20.6376 36.7839C20.3519 36.2712 19.7283 36.0969 19.2392 36.3935C18.3535 36.9348 17.402 37.3475 16.4113 37.6192C15.8434 37.6939 15.4407 38.2405 15.5115 38.8395C15.5823 39.4386 16.1005 39.8634 16.6684 39.7887V39.7129Z" fill="#FFBB01"/>
<path d="M12.5553 46.6441C13.1232 46.6441 13.5836 46.1584 13.5836 45.5593V28.5291L15.815 32.0546C16.0043 32.3575 16.3247 32.5408 16.6686 32.5424C16.871 32.545 17.0688 32.4804 17.234 32.3581C17.7035 32.027 17.8321 31.3591 17.5222 30.8612L13.4089 24.3528C13.4089 24.3528 13.4089 24.3528 13.3572 24.2982C13.1624 24.0419 12.8671 23.8925 12.5553 23.8925C12.2435 23.8925 11.9482 24.0419 11.7534 24.2982C11.7534 24.2982 11.7534 24.2982 11.7017 24.3528L7.58834 30.8612C7.33728 31.3549 7.4839 31.9688 7.92676 32.2781C8.36913 32.5874 8.96213 32.4905 9.29554 32.0546L11.527 28.5291V45.5593C11.527 46.1584 11.9874 46.6441 12.5553 46.6441Z" fill="#FFBB01"/>
<path d="M38.8287 19.7098C38.3572 19.383 37.7236 19.5186 37.4097 20.0138L35.1783 23.5393V10.8475C35.1783 10.2485 34.7179 9.76279 34.15 9.76279C33.5821 9.76279 33.1217 10.2485 33.1217 10.8475V23.5393L30.8902 20.0138C30.7055 19.651 30.3424 19.4296 29.9523 19.4423C29.5621 19.4551 29.2127 19.6992 29.0495 20.0732C28.8868 20.4471 28.9385 20.8862 29.183 21.2072L33.2964 27.7156C33.4877 28.0154 33.8075 28.195 34.15 28.195C34.4924 28.195 34.8123 28.0154 35.0036 27.7156L39.1169 21.2072C39.4267 20.7093 39.2982 20.0409 38.8287 19.7098Z" fill="#FFBB01"/>
</svg>
