<svg width="62" height="64" viewBox="0 0 62 64" fill="none" xmlns="http://www.w3.org/2000/svg">
<path d="M59.0768 38H58.1157V35C58.1157 34.7348 58.0144 34.4804 57.8342 34.2929C57.6539 34.1054 57.4095 34 57.1546 34H53.3102C53.0553 34 52.8109 34.1054 52.6306 34.2929C52.4504 34.4804 52.3491 34.7348 52.3491 35V38H50.427V29C50.427 28.7348 50.3257 28.4804 50.1455 28.2929C49.9652 28.1054 49.7208 28 49.4659 28H48.5048V25C48.5048 24.7348 48.4035 24.4804 48.2233 24.2929C48.043 24.1054 47.7986 24 47.5437 24H43.6993C43.4444 24 43.2 24.1054 43.0197 24.2929C42.8395 24.4804 42.7383 24.7348 42.7383 25V28H40.8161V20H49.4659C49.7208 20 49.9652 19.8946 50.1455 19.7071C50.3257 19.5196 50.427 19.2652 50.427 19V9C50.427 8.73478 50.3257 8.48043 50.1455 8.29289C49.9652 8.10536 49.7208 8 49.4659 8H48.5048V5C48.5048 4.73478 48.4035 4.48043 48.2233 4.29289C48.043 4.10536 47.7986 4 47.5437 4H43.6993C43.4444 4 43.2 4.10536 43.0197 4.29289C42.8395 4.48043 42.7383 4.73478 42.7383 5V8H38.8939V5C38.8939 4.73478 38.7926 4.48043 38.6124 4.29289C38.4322 4.10536 38.1877 4 37.9328 4H34.0885C33.8336 4 33.5891 4.10536 33.4089 4.29289C33.2286 4.48043 33.1274 4.73478 33.1274 5V8H32.1663C31.9114 8 31.6669 8.10536 31.4867 8.29289C31.3065 8.48043 31.2052 8.73478 31.2052 9V18H29.283V15C29.283 14.7348 29.1818 14.4804 29.0015 14.2929C28.8213 14.1054 28.5768 14 28.3219 14H24.4776C24.2227 14 23.9782 14.1054 23.798 14.2929C23.6178 14.4804 23.5165 14.7348 23.5165 15V18H19.6721V15C19.6721 14.7348 19.5709 14.4804 19.3906 14.2929C19.2104 14.1054 18.966 14 18.7111 14H14.8667C14.6118 14 14.3673 14.1054 14.1871 14.2929C14.0069 14.4804 13.9056 14.7348 13.9056 15V18H12.9445C12.6896 18 12.4452 18.1054 12.2649 18.2929C12.0847 18.4804 11.9834 18.7348 11.9834 19V29C11.9834 29.2652 12.0847 29.5196 12.2649 29.7071C12.4452 29.8946 12.6896 30 12.9445 30H21.5943V38H19.6721V35C19.6721 34.7348 19.5709 34.4804 19.3906 34.2929C19.2104 34.1054 18.966 34 18.7111 34H14.8667C14.6118 34 14.3673 34.1054 14.1871 34.2929C14.0069 34.4804 13.9056 34.7348 13.9056 35V38H10.0613V35C10.0613 34.7348 9.96001 34.4804 9.77977 34.2929C9.59953 34.1054 9.35507 34 9.10017 34H5.25582C5.00093 34 4.75647 34.1054 4.57623 34.2929C4.39599 34.4804 4.29473 34.7348 4.29473 35V38H3.33365C3.07875 38 2.83429 38.1054 2.65405 38.2929C2.47382 38.4804 2.37256 38.7348 2.37256 39V59C2.37256 59.2652 2.47382 59.5196 2.65405 59.7071C2.83429 59.8946 3.07875 60 3.33365 60H9.10017C9.35507 60 9.59953 59.8946 9.77977 59.7071C9.96001 59.5196 10.0613 59.2652 10.0613 59C10.0613 57.1435 10.7701 55.363 12.0317 54.0503C13.2934 52.7375 15.0046 52 16.7889 52C18.5732 52 20.2843 52.7375 21.546 54.0503C22.8077 55.363 23.5165 57.1435 23.5165 59C23.5165 59.2652 23.6178 59.5196 23.798 59.7071C23.9782 59.8946 24.2227 60 24.4776 60H30.2441C30.499 60 30.7435 59.8946 30.9237 59.7071C31.1039 59.5196 31.2052 59.2652 31.2052 59V40H40.8161V59C40.8161 59.2652 40.9173 59.5196 41.0976 59.7071C41.2778 59.8946 41.5223 60 41.7772 60H59.0768C59.3316 60 59.5761 59.8946 59.7563 59.7071C59.9366 59.5196 60.0378 59.2652 60.0378 59V39C60.0378 38.7348 59.9366 38.4804 59.7563 38.2929C59.5761 38.1054 59.3316 38 59.0768 38ZM54.2713 36H56.1935V38H54.2713V36ZM44.6604 26H46.5826V28H44.6604V26ZM44.6604 6H46.5826V8H44.6604V6ZM35.0495 6H36.9717V8H35.0495V6ZM33.1274 10H48.5048V18H33.1274V10ZM25.4387 16H27.3608V18H25.4387V16ZM15.8278 16H17.75V18H15.8278V16ZM13.9056 20H38.8939V28H13.9056V20ZM23.5165 30H48.5048V38H23.5165V30ZM15.8278 36H17.75V38H15.8278V36ZM6.21691 36H8.13909V38H6.21691V36ZM29.283 58H25.3848C25.1479 55.8004 24.1403 53.7688 22.5545 52.2934C20.9688 50.8181 18.9161 50.0024 16.7889 50.0024C14.6616 50.0024 12.609 50.8181 11.0232 52.2934C9.43748 53.7688 8.42984 55.8004 8.19291 58H4.29473V44H21.5943V42H4.29473V40H29.283V58ZM49.4659 40H58.1157V48H42.7383V40H49.4659ZM42.7383 58V50H58.1157V58H42.7383Z" fill="#FFBB01"/>
<path d="M25.4388 42H23.5166V44H25.4388V42Z" fill="#FFBB01"/>
</svg>
