<svg width="64" height="65" viewBox="0 0 64 65" fill="none" xmlns="http://www.w3.org/2000/svg">
<g clip-path="url(#clip0)">
<path d="M29 4.53119C29 4.26597 28.8946 4.01162 28.7071 3.82408C28.5196 3.63655 28.2652 3.53119 28 3.53119C27.7348 3.53119 27.4804 3.63655 27.2929 3.82408C27.1054 4.01162 27 4.26597 27 4.53119C27 4.79641 27.1054 5.05076 27.2929 5.2383C27.4804 5.42583 27.7348 5.53119 28 5.53119C28.2652 5.53119 28.5196 5.42583 28.7071 5.2383C28.8946 5.05076 29 4.79641 29 4.53119Z" fill="#FFBB01"/>
<path d="M37 4.53119C37 4.26597 36.8946 4.01162 36.7071 3.82408C36.5196 3.63655 36.2652 3.53119 36 3.53119C35.7348 3.53119 35.4804 3.63655 35.2929 3.82408C35.1054 4.01162 35 4.26597 35 4.53119C35 4.79641 35.1054 5.05076 35.2929 5.2383C35.4804 5.42583 35.7348 5.53119 36 5.53119C36.2652 5.53119 36.5196 5.42583 36.7071 5.2383C36.8946 5.05076 37 4.79641 37 4.53119Z" fill="#FFBB01"/>
<path d="M63 12.5312H52V5.53119C52 4.20511 51.4732 2.93334 50.5355 1.99566C49.5979 1.05797 48.3261 0.531189 47 0.531189L17 0.531189C15.6739 0.531189 14.4021 1.05797 13.4645 1.99566C12.5268 2.93334 12 4.20511 12 5.53119V12.5312H4C3.73478 12.5312 3.48043 12.6365 3.29289 12.8241C3.10536 13.0116 3 13.266 3 13.5312V31.5312C3 31.7964 3.10536 32.0508 3.29289 32.2383C3.48043 32.4258 3.73478 32.5312 4 32.5312H12V40.5312H1C0.734784 40.5312 0.48043 40.6365 0.292893 40.8241C0.105357 41.0116 0 41.266 0 41.5312L0 53.5312C0 53.7964 0.105357 54.0508 0.292893 54.2383C0.48043 54.4258 0.734784 54.5312 1 54.5312H12V59.5312C12 60.8573 12.5268 62.129 13.4645 63.0667C14.4021 64.0044 15.6739 64.5312 17 64.5312H47C48.3261 64.5312 49.5979 64.0044 50.5355 63.0667C51.4732 62.129 52 60.8573 52 59.5312V55.1212C62.67 52.0712 62.58 36.9612 52 33.9612V28.5312H63C63.2652 28.5312 63.5196 28.4258 63.7071 28.2383C63.8946 28.0508 64 27.7964 64 27.5312V13.5312C64 13.266 63.8946 13.0116 63.7071 12.8241C63.5196 12.6365 63.2652 12.5312 63 12.5312ZM14 5.53119C14 4.73554 14.3161 3.97248 14.8787 3.40987C15.4413 2.84726 16.2044 2.53119 17 2.53119H47C47.7957 2.53119 48.5587 2.84726 49.1213 3.40987C49.6839 3.97248 50 4.73554 50 5.53119V12.5312H48V5.53119C48 5.26597 47.8946 5.01162 47.7071 4.82408C47.5196 4.63655 47.2652 4.53119 47 4.53119H40C39.7348 4.53119 39.4804 4.63655 39.2929 4.82408C39.1054 5.01162 39 5.26597 39 5.53119C39 5.79641 38.8946 6.05076 38.7071 6.2383C38.5196 6.42583 38.2652 6.53119 38 6.53119H26C25.7348 6.53119 25.4804 6.42583 25.2929 6.2383C25.1054 6.05076 25 5.79641 25 5.53119C25 5.26597 24.8946 5.01162 24.7071 4.82408C24.5196 4.63655 24.2652 4.53119 24 4.53119H17C16.7348 4.53119 16.4804 4.63655 16.2929 4.82408C16.1054 5.01162 16 5.26597 16 5.53119V12.5312H14V5.53119ZM35 12.5312C34.7348 12.5312 34.4804 12.6365 34.2929 12.8241C34.1054 13.0116 34 13.266 34 13.5312V27.5312C34 27.7964 34.1054 28.0508 34.2929 28.2383C34.4804 28.4258 34.7348 28.5312 35 28.5312H46V33.9612C35.46 36.9612 35.35 51.8512 45.78 55.0512C46.09 55.1412 46 54.6812 46 58.5312H18V54.5312H31C31.2652 54.5312 31.5196 54.4258 31.7071 54.2383C31.8946 54.0508 32 53.7964 32 53.5312V41.5312C32 41.266 31.8946 41.0116 31.7071 40.8241C31.5196 40.6365 31.2652 40.5312 31 40.5312H18V32.5312H26C26.2652 32.5312 26.5196 32.4258 26.7071 32.2383C26.8946 32.0508 27 31.7964 27 31.5312V13.5312C27 13.266 26.8946 13.0116 26.7071 12.8241C26.5196 12.6365 26.2652 12.5312 26 12.5312H18V6.53119H23.17C23.3769 7.11635 23.7602 7.62293 24.267 7.98113C24.7739 8.33933 25.3793 8.53151 26 8.53119H38C38.6207 8.53151 39.2261 8.33933 39.733 7.98113C40.2398 7.62293 40.6231 7.11635 40.83 6.53119H46V12.5312H35ZM51.64 42.7112C51.64 43.4114 51.3619 44.0829 50.8668 44.5779C50.3717 45.073 49.7002 45.3512 49 45.3512C48.2998 45.3512 47.6283 45.073 47.1332 44.5779C46.6381 44.0829 46.36 43.4114 46.36 42.7112V41.8012C46.36 41.101 46.6381 40.4295 47.1332 39.9344C47.6283 39.4393 48.2998 39.1612 49 39.1612C49.7002 39.1612 50.3717 39.4393 50.8668 39.9344C51.3619 40.4295 51.64 41.101 51.64 41.8012V42.7112ZM54 50.9812L54.27 51.7812C52.7339 52.9156 50.8746 53.5277 48.965 53.5277C47.0554 53.5277 45.1961 52.9156 43.66 51.7812L43.94 50.9712C44.2969 49.9196 44.9744 49.0065 45.8774 48.3601C46.7803 47.7137 47.8631 47.3666 48.9736 47.3677C50.084 47.3688 51.1662 47.718 52.0678 48.3662C52.9695 49.0144 53.6452 49.9289 54 50.9812ZM5 14.5312H25V30.5312H5V14.5312ZM14 32.5312H16V40.5312H14V32.5312ZM2 42.5312H30V52.5312H2V42.5312ZM47 62.5312H17C16.2044 62.5312 15.4413 62.2151 14.8787 61.6525C14.3161 61.0899 14 60.3268 14 59.5312V54.5312H16V59.5312C16 59.7964 16.1054 60.0508 16.2929 60.2383C16.4804 60.4258 16.7348 60.5312 17 60.5312H47C47.2652 60.5312 47.5196 60.4258 47.7071 60.2383C47.8946 60.0508 48 59.7964 48 59.5312V55.5312C48.6648 55.6012 49.3352 55.6012 50 55.5312V59.5312C50 60.3268 49.6839 61.0899 49.1213 61.6525C48.5587 62.2151 47.7957 62.5312 47 62.5312ZM55.91 50.2912C55.6022 49.374 55.1135 48.5279 54.4728 47.803C53.8321 47.0782 53.0524 46.4893 52.18 46.0712C52.7353 45.5196 53.1559 44.8474 53.4091 44.1068C53.6623 43.3663 53.7413 42.5773 53.64 41.8012C53.64 40.5706 53.1511 39.3904 52.281 38.5202C51.4108 37.65 50.2306 37.1612 49 37.1612C47.7694 37.1612 46.5892 37.65 45.719 38.5202C44.8489 39.3904 44.36 40.5706 44.36 41.8012C44.36 43.2612 44.36 44.6612 45.82 46.0712C44.9466 46.4878 44.1661 47.0763 43.5252 47.8013C42.8844 48.5264 42.3962 49.3732 42.09 50.2912C40.9937 48.9774 40.2945 47.3783 40.0746 45.6814C39.8547 43.9845 40.1231 42.26 40.8484 40.7102C41.5736 39.1603 42.7257 37.8494 44.1694 36.931C45.6132 36.0125 47.2889 35.5247 49 35.5247C50.7111 35.5247 52.3868 36.0125 53.8306 36.931C55.2743 37.8494 56.4264 39.1603 57.1516 40.7102C57.8769 42.26 58.1453 43.9845 57.9254 45.6814C57.7055 47.3783 57.0063 48.9774 55.91 50.2912ZM50 33.5812C49.3352 33.5112 48.6648 33.5112 48 33.5812V28.5312H50V33.5812ZM62 26.5812H36V14.5312H62V26.5812Z" fill="#FFBB01"/>
<path d="M22 48.5312H6C5.73478 48.5312 5.48043 48.6365 5.29289 48.8241C5.10536 49.0116 5 49.266 5 49.5312C5 49.7964 5.10536 50.0508 5.29289 50.2383C5.48043 50.4258 5.73478 50.5312 6 50.5312H22C22.2652 50.5312 22.5196 50.4258 22.7071 50.2383C22.8946 50.0508 23 49.7964 23 49.5312C23 49.266 22.8946 49.0116 22.7071 48.8241C22.5196 48.6365 22.2652 48.5312 22 48.5312Z" fill="#FFBB01"/>
<path d="M6 46.5312H26C26.2652 46.5312 26.5196 46.4258 26.7071 46.2383C26.8946 46.0508 27 45.7964 27 45.5312C27 45.266 26.8946 45.0116 26.7071 44.8241C26.5196 44.6365 26.2652 44.5312 26 44.5312H6C5.73478 44.5312 5.48043 44.6365 5.29289 44.8241C5.10536 45.0116 5 45.266 5 45.5312C5 45.7964 5.10536 46.0508 5.29289 46.2383C5.48043 46.4258 5.73478 46.5312 6 46.5312Z" fill="#FFBB01"/>
<path d="M14 27.5312V21.5312C14 21.266 13.8946 21.0116 13.7071 20.8241C13.5196 20.6365 13.2652 20.5312 13 20.5312C12.7348 20.5312 12.4804 20.6365 12.2929 20.8241C12.1054 21.0116 12 21.266 12 21.5312V27.5312C12 27.7964 12.1054 28.0508 12.2929 28.2383C12.4804 28.4258 12.7348 28.5312 13 28.5312C13.2652 28.5312 13.5196 28.4258 13.7071 28.2383C13.8946 28.0508 14 27.7964 14 27.5312Z" fill="#FFBB01"/>
<path d="M8 25.5312V27.5312C8 27.7964 8.10536 28.0508 8.29289 28.2383C8.48043 28.4258 8.73478 28.5312 9 28.5312C9.26522 28.5312 9.51957 28.4258 9.70711 28.2383C9.89464 28.0508 10 27.7964 10 27.5312V25.5312C10 25.266 9.89464 25.0116 9.70711 24.8241C9.51957 24.6365 9.26522 24.5312 9 24.5312C8.73478 24.5312 8.48043 24.6365 8.29289 24.8241C8.10536 25.0116 8 25.266 8 25.5312Z" fill="#FFBB01"/>
<path d="M18 27.5312V22.5312C18 22.266 17.8946 22.0116 17.7071 21.8241C17.5196 21.6365 17.2652 21.5312 17 21.5312C16.7348 21.5312 16.4804 21.6365 16.2929 21.8241C16.1054 22.0116 16 22.266 16 22.5312V27.5312C16 27.7964 16.1054 28.0508 16.2929 28.2383C16.4804 28.4258 16.7348 28.5312 17 28.5312C17.2652 28.5312 17.5196 28.4258 17.7071 28.2383C17.8946 28.0508 18 27.7964 18 27.5312Z" fill="#FFBB01"/>
<path d="M22 27.5312V17.5312C22 17.266 21.8946 17.0116 21.7071 16.8241C21.5196 16.6365 21.2652 16.5312 21 16.5312C20.7348 16.5312 20.4804 16.6365 20.2929 16.8241C20.1054 17.0116 20 17.266 20 17.5312V27.5312C20 27.7964 20.1054 28.0508 20.2929 28.2383C20.4804 28.4258 20.7348 28.5312 21 28.5312C21.2652 28.5312 21.5196 28.4258 21.7071 28.2383C21.8946 28.0508 22 27.7964 22 27.5312Z" fill="#FFBB01"/>
<path d="M42.2899 16.8212L39.2899 19.8212C39.1962 19.9142 39.1218 20.0248 39.071 20.1466C39.0203 20.2685 38.9941 20.3992 38.9941 20.5312C38.9941 20.6632 39.0203 20.7939 39.071 20.9158C39.1218 21.0376 39.1962 21.1482 39.2899 21.2412L42.2899 24.2412C42.4782 24.4295 42.7336 24.5353 42.9999 24.5353C43.2662 24.5353 43.5216 24.4295 43.7099 24.2412C43.8982 24.0529 44.004 23.7975 44.004 23.5312C44.004 23.2649 43.8982 23.0095 43.7099 22.8212L41.4099 20.5312L43.7099 18.2412C43.8982 18.0529 44.004 17.7975 44.004 17.5312C44.004 17.2649 43.8982 17.0095 43.7099 16.8212C43.5216 16.6329 43.2662 16.5271 42.9999 16.5271C42.7336 16.5271 42.4782 16.6329 42.2899 16.8212Z" fill="#FFBB01"/>
<path d="M55.7099 24.2412L58.7099 21.2412C58.8037 21.1482 58.8781 21.0376 58.9288 20.9158C58.9796 20.7939 59.0057 20.6632 59.0057 20.5312C59.0057 20.3992 58.9796 20.2685 58.9288 20.1466C58.8781 20.0248 58.8037 19.9142 58.7099 19.8212L55.7099 16.8212C55.5216 16.6329 55.2662 16.5271 54.9999 16.5271C54.7336 16.5271 54.4782 16.6329 54.2899 16.8212C54.1016 17.0095 53.9958 17.2649 53.9958 17.5312C53.9958 17.7975 54.1016 18.0529 54.2899 18.2412L56.5899 20.5312L54.2899 22.8212C54.1016 23.0095 53.9958 23.2649 53.9958 23.5312C53.9958 23.7975 54.1016 24.0529 54.2899 24.2412C54.4782 24.4295 54.7336 24.5353 54.9999 24.5353C55.2662 24.5353 55.5216 24.4295 55.7099 24.2412Z" fill="#FFBB01"/>
<path d="M46.17 22.9812C46.0709 23.1316 46.0143 23.3059 46.0062 23.4858C45.998 23.6657 46.0386 23.8445 46.1236 24.0032C46.2086 24.162 46.3349 24.2948 46.4891 24.3878C46.6434 24.4807 46.8199 24.5302 47 24.5312C47.73 24.5312 47.46 24.6512 51.83 18.0812C51.9478 17.8616 51.9793 17.606 51.9185 17.3643C51.8577 17.1227 51.7088 16.9125 51.5011 16.7749C51.2934 16.6372 51.0418 16.5821 50.7956 16.6203C50.5494 16.6584 50.3263 16.7871 50.17 16.9812L46.17 22.9812Z" fill="#FFBB01"/>
</g>
<defs>
<clipPath id="clip0">
<rect width="64" height="64" fill="white" transform="translate(0 0.531189)"/>
</clipPath>
</defs>
</svg>
