<svg width="64" height="65" viewBox="0 0 64 65" fill="none" xmlns="http://www.w3.org/2000/svg">
<g clip-path="url(#clip0)">
<path d="M63 12.5973H12V1.59726C12 1.33204 11.8946 1.07769 11.7071 0.890153C11.5196 0.702616 11.2652 0.59726 11 0.59726H7C5.14348 0.59726 3.36301 1.33476 2.05025 2.64751C0.737498 3.96027 0 5.74074 0 7.59726L0 57.5973C0 59.4538 0.737498 61.2343 2.05025 62.547C3.36301 63.8598 5.14348 64.5973 7 64.5973H63C63.2652 64.5973 63.5196 64.4919 63.7071 64.3044C63.8946 64.1168 64 63.8625 64 63.5973V13.5973C64 13.332 63.8946 13.0777 63.7071 12.8902C63.5196 12.7026 63.2652 12.5973 63 12.5973ZM2 7.59726C2 6.27118 2.52678 4.99941 3.46447 4.06173C4.40215 3.12404 5.67392 2.59726 7 2.59726H10V50.5973C6.73 50.5973 4.41 50.2573 2 52.7073V7.59726ZM62 62.5973H7C6.01065 62.597 5.04359 62.3033 4.22124 61.7533C3.39888 61.2032 2.75819 60.4216 2.38025 59.5073C2.00232 58.5929 1.90413 57.587 2.09811 56.6169C2.2921 55.6467 2.76954 54.756 3.47 54.0573C6.58 50.9173 12 54.0573 12 51.5973V14.5973H62V62.5973Z" fill="#FFBB01"/>
<path d="M61 0.597262H23C22.68 0.597262 22.88 0.537263 19.39 2.28726C16.54 3.70726 16 3.76726 16 4.59726C16 5.42726 16.53 5.47726 19.39 6.90726C22.9 8.66726 22.68 8.59726 23 8.59726H61C61.7957 8.59726 62.5587 8.28119 63.1213 7.71858C63.6839 7.15597 64 6.39291 64 5.59726V3.59726C64 2.80161 63.6839 2.03855 63.1213 1.47594C62.5587 0.913333 61.7957 0.597262 61 0.597262ZM51 2.59726V6.59726H24.72C25.0903 5.28964 25.0903 3.90488 24.72 2.59726H51ZM21 5.45726C21.07 4.88607 21.07 4.30846 21 3.73726L22.77 2.85726C23.1452 3.98692 23.1452 5.2076 22.77 6.33726L21 5.45726ZM53 2.59726H55V6.59726H53V2.59726ZM62 5.59726C62 5.86248 61.8946 6.11683 61.7071 6.30437C61.5196 6.49191 61.2652 6.59726 61 6.59726H57V2.59726H61C61.2652 2.59726 61.5196 2.70262 61.7071 2.89016C61.8946 3.07769 62 3.33205 62 3.59726V5.59726Z" fill="#FFBB01"/>
<path d="M17 29.5973H23V38.5973C23 38.8625 23.1054 39.1168 23.2929 39.3044C23.4804 39.4919 23.7348 39.5973 24 39.5973H36V52.5973C36 52.8625 36.1054 53.1168 36.2929 53.3044C36.4804 53.4919 36.7348 53.5973 37 53.5973H42V56.5973C42 56.8625 42.1054 57.1168 42.2929 57.3044C42.4804 57.4919 42.7348 57.5973 43 57.5973H57C57.2652 57.5973 57.5196 57.4919 57.7071 57.3044C57.8946 57.1168 58 56.8625 58 56.5973V48.5973C58 48.332 57.8946 48.0777 57.7071 47.8902C57.5196 47.7026 57.2652 47.5973 57 47.5973H43C42.7348 47.5973 42.4804 47.7026 42.2929 47.8902C42.1054 48.0777 42 48.332 42 48.5973V51.5973H38V39.5973H42V42.5973C42 42.8625 42.1054 43.1168 42.2929 43.3044C42.4804 43.4919 42.7348 43.5973 43 43.5973H57C57.2652 43.5973 57.5196 43.4919 57.7071 43.3044C57.8946 43.1168 58 42.8625 58 42.5973V34.5973C58 34.332 57.8946 34.0777 57.7071 33.8902C57.5196 33.7026 57.2652 33.5973 57 33.5973H43C42.7348 33.5973 42.4804 33.7026 42.2929 33.8902C42.1054 34.0777 42 34.332 42 34.5973V37.5973H38V25.5973H42V28.5973C42 28.8625 42.1054 29.1168 42.2929 29.3044C42.4804 29.4919 42.7348 29.5973 43 29.5973H57C57.2652 29.5973 57.5196 29.4919 57.7071 29.3044C57.8946 29.1168 58 28.8625 58 28.5973V20.5973C58 20.332 57.8946 20.0777 57.7071 19.8902C57.5196 19.7026 57.2652 19.5973 57 19.5973H43C42.7348 19.5973 42.4804 19.7026 42.2929 19.8902C42.1054 20.0777 42 20.332 42 20.5973V23.5973H37C36.7348 23.5973 36.4804 23.7026 36.2929 23.8902C36.1054 24.0777 36 24.332 36 24.5973V37.5973H25V29.5973H31C31.2652 29.5973 31.5196 29.4919 31.7071 29.3044C31.8946 29.1168 32 28.8625 32 28.5973V20.5973C32 20.332 31.8946 20.0777 31.7071 19.8902C31.5196 19.7026 31.2652 19.5973 31 19.5973H17C16.7348 19.5973 16.4804 19.7026 16.2929 19.8902C16.1054 20.0777 16 20.332 16 20.5973V28.5973C16 28.8625 16.1054 29.1168 16.2929 29.3044C16.4804 29.4919 16.7348 29.5973 17 29.5973ZM44 49.5973H56V55.5973H44V49.5973ZM44 35.5973H56V41.5973H44V35.5973ZM44 21.5973H56V27.5973H44V21.5973ZM18 21.5973H30V27.5973H18V21.5973Z" fill="#FFBB01"/>
<path d="M32 45.5973H21C20.7348 45.5973 20.4804 45.7026 20.2929 45.8902C20.1054 46.0777 20 46.332 20 46.5973C20 46.8625 20.1054 47.1168 20.2929 47.3044C20.4804 47.4919 20.7348 47.5973 21 47.5973H32C32.2652 47.5973 32.5196 47.4919 32.7071 47.3044C32.8946 47.1168 33 46.8625 33 46.5973C33 46.332 32.8946 46.0777 32.7071 45.8902C32.5196 45.7026 32.2652 45.5973 32 45.5973Z" fill="#FFBB01"/>
<path d="M32 50.5973H21C20.7348 50.5973 20.4804 50.7026 20.2929 50.8902C20.1054 51.0777 20 51.332 20 51.5973C20 51.8625 20.1054 52.1168 20.2929 52.3044C20.4804 52.4919 20.7348 52.5973 21 52.5973H32C32.2652 52.5973 32.5196 52.4919 32.7071 52.3044C32.8946 52.1168 33 51.8625 33 51.5973C33 51.332 32.8946 51.0777 32.7071 50.8902C32.5196 50.7026 32.2652 50.5973 32 50.5973Z" fill="#FFBB01"/>
<path d="M32 55.5973H21C20.7348 55.5973 20.4804 55.7026 20.2929 55.8902C20.1054 56.0777 20 56.332 20 56.5973C20 56.8625 20.1054 57.1168 20.2929 57.3044C20.4804 57.4919 20.7348 57.5973 21 57.5973H32C32.2652 57.5973 32.5196 57.4919 32.7071 57.3044C32.8946 57.1168 33 56.8625 33 56.5973C33 56.332 32.8946 56.0777 32.7071 55.8902C32.5196 55.7026 32.2652 55.5973 32 55.5973Z" fill="#FFBB01"/>
<path d="M17 47.5973C17.2652 47.5973 17.5196 47.4919 17.7071 47.3044C17.8946 47.1168 18 46.8625 18 46.5973C18 46.332 17.8946 46.0777 17.7071 45.8902C17.5196 45.7026 17.2652 45.5973 17 45.5973C16.7348 45.5973 16.4804 45.7026 16.2929 45.8902C16.1054 46.0777 16 46.332 16 46.5973C16 46.8625 16.1054 47.1168 16.2929 47.3044C16.4804 47.4919 16.7348 47.5973 17 47.5973Z" fill="#FFBB01"/>
<path d="M17 52.5973C17.2652 52.5973 17.5196 52.4919 17.7071 52.3044C17.8946 52.1168 18 51.8625 18 51.5973C18 51.332 17.8946 51.0777 17.7071 50.8902C17.5196 50.7026 17.2652 50.5973 17 50.5973C16.7348 50.5973 16.4804 50.7026 16.2929 50.8902C16.1054 51.0777 16 51.332 16 51.5973C16 51.8625 16.1054 52.1168 16.2929 52.3044C16.4804 52.4919 16.7348 52.5973 17 52.5973Z" fill="#FFBB01"/>
<path d="M17 57.5973C17.2652 57.5973 17.5196 57.4919 17.7071 57.3044C17.8946 57.1168 18 56.8625 18 56.5973C18 56.332 17.8946 56.0777 17.7071 55.8902C17.5196 55.7026 17.2652 55.5973 17 55.5973C16.7348 55.5973 16.4804 55.7026 16.2929 55.8902C16.1054 56.0777 16 56.332 16 56.5973C16 56.8625 16.1054 57.1168 16.2929 57.3044C16.4804 57.4919 16.7348 57.5973 17 57.5973Z" fill="#FFBB01"/>
</g>
<defs>
<clipPath id="clip0">
<rect width="64" height="64" fill="white" transform="translate(0 0.59726)"/>
</clipPath>
</defs>
</svg>
