<svg width="18" height="17" viewBox="0 0 18 17" fill="none" xmlns="http://www.w3.org/2000/svg">
<path d="M8.83044 0C4.15879 0 0.330444 3.86155 0.330444 8.5332C0.330444 13.1777 4.1239 17 8.83044 17C13.5312 17 17.3304 13.1835 17.3304 8.5332C17.3304 3.86155 13.5021 0 8.83044 0ZM10.3246 15.8545C9.84651 15.9541 9.33848 16.0039 8.83044 16.0039C8.32241 16.0039 7.81438 15.9541 7.3363 15.8545V13.5237C7.3363 12.9658 7.48572 12.7666 7.68494 12.4976C7.78636 12.3817 7.84758 12.2776 8.30244 11.5913L7.53552 11.4717C5.56318 11.1828 4.78628 10.1568 4.47746 9.35991C4.07903 8.29417 4.28823 6.9593 5.00547 6.11275C5.11507 5.98318 5.20469 5.76398 5.12505 5.53493C4.97551 5.07671 4.99548 4.34961 5.09509 4.07063C5.62323 4.14611 6.16628 4.52444 6.61919 4.79785C6.82788 4.91964 6.93735 4.88747 7.03748 4.89746C7.40141 4.82172 7.96911 4.63845 8.84043 4.63845C9.3783 4.63845 9.94612 4.71809 10.504 4.87749C10.6037 4.87515 10.764 4.95998 11.0418 4.79785C11.5152 4.5094 12.0399 4.14404 12.5658 4.07063C12.6654 4.34961 12.6854 5.07671 12.536 5.53493C12.4562 5.76398 12.5458 5.98318 12.6555 6.11275C13.3727 6.95943 13.5819 8.29417 13.1834 9.35991C12.8746 10.1568 12.0977 11.1828 10.1254 11.4717L9.35845 11.5913C9.82861 12.3007 9.87816 12.3858 9.97608 12.4976C10.1752 12.7666 10.3246 12.9658 10.3246 13.5237V15.8545ZM11.3207 15.5657V13.5237C11.3207 12.9558 11.2011 12.5774 11.0417 12.2984C12.5558 11.8901 13.6317 10.9935 14.1097 9.70854C14.6178 8.35396 14.3887 6.74023 13.5419 5.62456C13.6915 4.95725 13.6915 3.89138 13.3328 3.39333C13.1734 3.17427 12.9542 3.05469 12.6754 3.05469C12.6654 3.05469 12.6654 3.05469 12.6654 3.05469C11.893 3.09645 11.2851 3.48542 10.6334 3.88139C10.0357 3.72199 9.4281 3.64236 8.82046 3.64236C8.20296 3.64236 7.58533 3.73198 7.03761 3.88139C6.35149 3.46765 5.74943 3.09541 4.95567 3.05469C4.70664 3.05469 4.48745 3.17427 4.32805 3.39333C3.96956 3.89138 3.96956 4.95725 4.11897 5.62456C3.27216 6.74023 3.04311 8.36382 3.55115 9.70854C4.02922 10.9935 5.10508 11.8901 6.61919 12.2984C6.49559 12.5146 6.3978 12.7936 6.35928 13.1711C6.05344 13.2766 5.78821 13.311 5.54152 13.2384C5.28134 13.1615 5.07862 12.9879 4.90249 12.6916C4.5069 12.0271 3.83311 11.4845 3.06594 11.5551L3.15349 12.5473C3.50874 12.5147 3.8623 12.8906 4.04595 13.2004C4.34893 13.7107 4.7571 14.0453 5.25942 14.1937C5.63231 14.3035 5.97316 14.3009 6.34021 14.2226V15.5657C3.44155 14.5496 1.32654 11.7805 1.32654 8.5332C1.32654 4.4094 4.70664 0.996094 8.83044 0.996094C12.9542 0.996094 16.3344 4.4094 16.3344 8.5332C16.3344 11.7805 14.2193 14.5496 11.3207 15.5657Z" fill="white"/>
</svg>
