<svg width="18" height="17" viewBox="0 0 18 17" fill="none" xmlns="http://www.w3.org/2000/svg">
<path d="M2.82068 17H14.8402C16.2133 17 17.3304 15.8829 17.3304 14.5098V2.49023C17.3304 1.1171 16.2133 0 14.8402 0H2.82068C1.44755 0 0.330444 1.1171 0.330444 2.49023V14.5098C0.330444 15.8829 1.44755 17 2.82068 17ZM1.32654 2.49023C1.32654 1.66638 1.99683 0.996094 2.82068 0.996094H14.8402C15.6641 0.996094 16.3344 1.66638 16.3344 2.49023V14.5098C16.3344 15.3336 15.6641 16.0039 14.8402 16.0039H2.82068C1.99683 16.0039 1.32654 15.3336 1.32654 14.5098V2.49023Z" fill="white"/>
<path d="M8.83044 12.9824C11.302 12.9824 13.3129 10.9716 13.3129 8.5C13.3129 6.02844 11.302 4.01758 8.83044 4.01758C6.35888 4.01758 4.34802 6.02844 4.34802 8.5C4.34802 10.9716 6.35888 12.9824 8.83044 12.9824ZM8.83044 5.01367C10.7528 5.01367 12.3168 6.57759 12.3168 8.5C12.3168 10.4224 10.7528 11.9863 8.83044 11.9863C6.90803 11.9863 5.34412 10.4224 5.34412 8.5C5.34412 6.57759 6.90803 5.01367 8.83044 5.01367Z" fill="white"/>
<path d="M13.528 4.77185C14.342 4.77185 15.0043 4.10956 15.0043 3.29553C15.0043 2.48151 14.342 1.81921 13.528 1.81921C12.7139 1.81921 12.0516 2.48151 12.0516 3.29553C12.0516 4.10956 12.7139 4.77185 13.528 4.77185ZM13.528 2.80343C13.7993 2.80343 14.0201 3.02423 14.0201 3.29553C14.0201 3.56683 13.7993 3.78764 13.528 3.78764C13.2567 3.78764 13.0358 3.56683 13.0358 3.29553C13.0358 3.02423 13.2567 2.80343 13.528 2.80343Z" fill="white"/>
</svg>
