<svg width="18" height="17" viewBox="0 0 18 17" fill="none" xmlns="http://www.w3.org/2000/svg">
<path d="M13.481 17C13.554 17 16.8551 16.9993 16.7829 16.9993C17.0762 16.9993 17.3143 16.7613 17.3143 16.4681C17.0663 10.9027 18.6195 5.02991 12.8234 5.02991C11.7089 5.02991 10.821 5.41028 10.1812 5.9132C10.1812 4.87832 9.06239 5.45066 6.47968 5.29695C6.18633 5.29695 5.94826 5.53495 5.94826 5.8282C6.16224 15.8624 5.47069 16.9993 6.47968 16.9993H9.78158C10.7403 16.9993 10.1302 15.6478 10.313 11.1995C10.313 9.36207 10.8444 9.00224 11.7627 9.00224C12.7788 9.00224 12.9496 9.70774 12.9496 11.2887C13.1317 15.657 12.5258 17 13.481 17ZM11.7627 7.93974C8.58056 7.93974 9.25016 11.4375 9.25016 15.9368H7.0111V6.35945H9.11836V7.27886C9.11836 7.78886 9.89565 8.03961 10.1663 7.52678C10.5149 6.8652 11.4205 6.09241 12.8234 6.09241C15.3225 6.09241 16.2515 7.31995 16.2515 10.6229V15.9375H14.0124C14.0124 10.8772 14.5481 7.93974 11.7627 7.93974V7.93974Z" fill="white"/>
<path d="M1.1039 5.29767C0.0977392 5.29767 0.786461 6.42037 0.572476 16.4688C0.572476 16.762 0.810552 17 1.1039 17H4.40934C5.4155 17 4.72677 15.8773 4.94076 5.82892C4.94076 4.91162 3.60795 5.45279 1.1039 5.29767V5.29767ZM3.87792 15.9375H1.63532V6.36016H3.87792V15.9375Z" fill="white"/>
<path d="M2.75479 0C-0.487585 0 -0.467745 4.90804 2.75479 4.90804C5.97521 4.90804 6.00072 0 2.75479 0ZM2.75479 3.84554C0.935207 3.84554 0.918202 1.0625 2.75479 1.0625C4.59493 1.0625 4.57155 3.84554 2.75479 3.84554Z" fill="white"/>
</svg>
