<svg width="18" height="17" viewBox="0 0 18 17" fill="none" xmlns="http://www.w3.org/2000/svg">
<path d="M0.623831 8.25499L4.78116 10.6225C4.94195 10.7132 5.13179 10.7067 5.28551 10.6039L8.98595 8.14572L6.74613 10.4137C6.63209 10.5294 6.56692 10.6946 6.56692 10.8686V16.3928C6.56692 16.9756 7.21789 17.2209 7.5232 16.7579L9.32029 14.0277L13.7645 16.9198C14.0762 17.1245 14.4757 16.9189 14.5479 16.5118L17.3197 0.728253C17.4026 0.253936 16.9896 -0.132963 16.6057 0.043489L0.667749 7.14609C0.239904 7.33711 0.212278 8.02107 0.623831 8.25499ZM16.0872 1.57814L13.6512 15.4491L9.44 12.7084C9.21049 12.5586 8.91511 12.625 8.75219 12.8711L7.62945 14.5765V11.1414L13.6866 5.00924C14.1661 4.5244 13.615 3.66238 13.0675 4.02985L4.99933 9.38979L2.17158 7.77986L16.0872 1.57814Z" fill="white"/>
</svg>
