<svg width="18" height="17" viewBox="0 0 18 17" fill="none" xmlns="http://www.w3.org/2000/svg">
<g clip-path="url(#clip0)">
<path d="M5.40432 9.67298C5.83055 10.2505 6.32032 10.7612 6.95303 11.1226C7.66953 11.5321 8.44094 11.6556 9.25452 11.6179C9.63461 11.5997 9.74893 11.5006 9.76646 11.1219C9.77823 10.8624 9.80822 10.6036 9.93597 10.3705C10.0615 10.1418 10.252 10.0985 10.4717 10.2408C10.5811 10.3127 10.6733 10.4026 10.7605 10.4989C10.9746 10.7326 11.1819 10.9747 11.4037 11.2007C11.6827 11.4847 12.0135 11.652 12.4285 11.6179L14.0364 11.6186C14.2952 11.6011 14.4298 11.2838 14.2813 10.9941C14.1767 10.7919 14.0393 10.612 13.8942 10.4374C13.5656 10.0427 13.1784 9.70626 12.8122 9.34917C12.4823 9.027 12.4613 8.83996 12.7264 8.46822C13.0165 8.06212 13.3276 7.67217 13.6199 7.26826C13.8927 6.89091 14.1725 6.5141 14.3154 6.06281C14.4068 5.77473 14.3259 5.64781 14.0317 5.59687C13.9807 5.58852 13.9277 5.58852 13.8761 5.58852L12.1264 5.58633C11.9109 5.58291 11.7923 5.67711 11.7162 5.86811C11.613 6.12634 11.507 6.38444 11.384 6.63281C11.1065 7.19788 10.796 7.74405 10.3607 8.20589C10.2644 8.30762 10.1576 8.43673 9.99731 8.38375C9.79713 8.31049 9.73784 7.97997 9.74127 7.86838L9.73976 5.84867C9.70087 5.56073 9.63652 5.43161 9.34995 5.37561H7.53261C7.29067 5.37561 7.16854 5.46995 7.03874 5.62125C6.9648 5.70928 6.94166 5.7657 7.09529 5.795C7.39651 5.85209 7.56752 6.04748 7.61216 6.34966C7.68404 6.83312 7.67911 7.31851 7.63735 7.80334C7.62544 7.94492 7.60107 8.08594 7.54507 8.21848C7.4573 8.42701 7.31491 8.46891 7.12869 8.34062C6.96069 8.22478 6.84212 8.06157 6.72546 7.89768C6.28951 7.28154 5.94214 6.61761 5.65817 5.91987C5.57657 5.71818 5.43499 5.59619 5.22153 5.59263C4.69686 5.58428 4.17163 5.58304 3.64627 5.59331C3.33094 5.59893 3.23674 5.75241 3.36586 6.03913C3.93722 7.31084 4.57349 8.54695 5.40432 9.67298V9.67298Z" fill="white"/>
<path d="M0.330444 0V17H17.3304V0H0.330444ZM16.2789 15.9485H1.38199V1.05155H16.2789V15.9485Z" fill="white"/>
</g>
<defs>
<clipPath id="clip0">
<rect width="17" height="17" fill="white" transform="translate(0.330444)"/>
</clipPath>
</defs>
</svg>
